STARTFONT 2.1
COMMENT
COMMENT Converted from TrueType font "BOOKOS.ttf" by "ttf2bdf 2.6".
COMMENT
FONT -FreeType-Bookman Old Style-Medium-R-Normal--17-120-100-100-P-92-ISO10646-1
SIZE 12 100 100
FONTBOUNDINGBOX 24 24 -3 -6
STARTPROPERTIES 21
FOUNDRY "FreeType"
FAMILY_NAME "Bookman Old Style"
WEIGHT_NAME "Medium"
SLANT "R"
SETWIDTH_NAME "Normal"
ADD_STYLE_NAME ""
PIXEL_SIZE 17
POINT_SIZE 120
RESOLUTION_X 100
RESOLUTION_Y 100
SPACING "P"
AVERAGE_WIDTH 92
CHARSET_REGISTRY "ISO10646"
CHARSET_ENCODING "1"
FONT_ASCENT 16
FONT_DESCENT 3
COPYRIGHT "Digitized data copyright The Monotype Corporation 1991-1995. All rights reserved. Bookman Old Style" is a trademark of The Monotype Corporation which may be registered in certain jurisdictions."
_TTF_FONTFILE "BOOKOS.ttf"
_TTF_PSNAME "BookmanOldStyle"
_XFREE86_GLYPH_RANGES "32_126 160_383 402 506_511 710_711 713 728_733 894 900_906 908 910_929 931_974 1025_1036 1038_1103 1105_1116 1118_1119 1168_1169 7808_7813 7922_7923 8211_8213 8215_8222 8224_8226 8230 8240 8242_8243 8249_8250 8252 8254 8260 8319 8355_8356 8359 8364 8453 8467 8470 8482 8486 8494 8539_8542 8592_8597 8616 8706 8710 8719 8721_8722 8725 8729_8730 8734_8735 8745 8747 8776 8800_8801 8804_8805 8962 8976 8992_8993 9472 9474 9484 9488 9492 9496 9500 9508 9516 9524 9532 9552_9580 9600 9604 9608"
_XFREE86_GLYPH_RANGES "9612 9616_9619 9632_9633 9642_9644 9650 9658 9660 9668 9674_9675 9679 9688_9689 9702 9786_9788 9792 9794 9824 9827 9829_9830 9834_9835 61440_61449 61696_61704 64257_64258"
ENDPROPERTIES
CHARS 671
STARTCHAR 0020
ENCODING 32
SWIDTH 300 0
DWIDTH 5 0
BBX 1 1 0 0
BITMAP
00
ENDCHAR
STARTCHAR 0021
ENCODING 33
SWIDTH 300 0
DWIDTH 5 0
BBX 1 12 1 0
BITMAP
80
80
80
80
80
80
80
80
80
00
80
80
ENDCHAR
STARTCHAR 0022
ENCODING 34
SWIDTH 360 0
DWIDTH 6 0
BBX 3 4 1 8
BITMAP
A0
A0
A0
A0
ENDCHAR
STARTCHAR 0023
ENCODING 35
SWIDTH 540 0
DWIDTH 9 0
BBX 7 11 1 0
BITMAP
12
12
12
24
7E
24
FE
24
48
48
48
ENDCHAR
STARTCHAR 0024
ENCODING 36
SWIDTH 660 0
DWIDTH 11 0
BBX 7 16 1 -2
BITMAP
10
10
7C
D6
92
90
50
38
14
92
92
D2
D6
3C
10
10
ENDCHAR
STARTCHAR 0025
ENCODING 37
SWIDTH 840 0
DWIDTH 14 0
BBX 13 12 0 0
BITMAP
7040
8840
8880
8900
8900
7200
0270
0488
0488
0888
1088
1070
ENDCHAR
STARTCHAR 0026
ENCODING 38
SWIDTH 840 0
DWIDTH 14 0
BBX 13 12 1 0
BITMAP
3C00
4200
4200
4200
3CF0
6C40
8640
8340
8190
8188
83C8
7C70
ENDCHAR
STARTCHAR 0027
ENCODING 39
SWIDTH 240 0
DWIDTH 4 0
BBX 1 4 1 8
BITMAP
80
80
80
80
ENDCHAR
STARTCHAR 0028
ENCODING 40
SWIDTH 300 0
DWIDTH 5 0
BBX 3 16 1 -4
BITMAP
20
40
40
80
80
80
80
80
80
80
80
80
80
40
40
20
ENDCHAR
STARTCHAR 0029
ENCODING 41
SWIDTH 300 0
DWIDTH 5 0
BBX 2 16 1 -4
BITMAP
80
80
40
40
40
40
40
40
40
40
40
40
40
40
80
80
ENDCHAR
STARTCHAR 002A
ENCODING 42
SWIDTH 420 0
DWIDTH 7 0
BBX 5 6 0 6
BITMAP
20
20
20
F8
20
50
ENDCHAR
STARTCHAR 002B
ENCODING 43
SWIDTH 600 0
DWIDTH 10 0
BBX 9 9 1 2
BITMAP
0800
0800
0800
0800
FF80
0800
0800
0800
0800
ENDCHAR
STARTCHAR 002C
ENCODING 44
SWIDTH 300 0
DWIDTH 5 0
BBX 3 5 1 -3
BITMAP
60
60
20
40
80
ENDCHAR
STARTCHAR 002D
ENCODING 45
SWIDTH 420 0
DWIDTH 7 0
BBX 5 1 1 4
BITMAP
F8
ENDCHAR
STARTCHAR 002E
ENCODING 46
SWIDTH 300 0
DWIDTH 5 0
BBX 1 2 2 0
BITMAP
80
80
ENDCHAR
STARTCHAR 002F
ENCODING 47
SWIDTH 600 0
DWIDTH 10 0
BBX 6 16 2 -3
BITMAP
04
04
04
08
08
08
10
10
20
20
20
40
40
40
80
80
ENDCHAR
STARTCHAR 0030
ENCODING 48
SWIDTH 600 0
DWIDTH 10 0
BBX 8 12 1 0
BITMAP
3C
42
81
81
81
81
81
81
81
81
42
3C
ENDCHAR
STARTCHAR 0031
ENCODING 49
SWIDTH 660 0
DWIDTH 11 0
BBX 5 12 3 0
BITMAP
20
E0
20
20
20
20
20
20
20
20
20
F8
ENDCHAR
STARTCHAR 0032
ENCODING 50
SWIDTH 660 0
DWIDTH 11 0
BBX 9 12 1 0
BITMAP
3E00
4100
8080
8080
8080
0080
0100
0200
0C00
3000
4080
FF00
ENDCHAR
STARTCHAR 0033
ENCODING 51
SWIDTH 660 0
DWIDTH 11 0
BBX 9 12 1 0
BITMAP
1E00
2100
4100
0100
0200
1E00
0100
0080
8080
8080
4100
3E00
ENDCHAR
STARTCHAR 0034
ENCODING 52
SWIDTH 660 0
DWIDTH 11 0
BBX 8 12 1 0
BITMAP
04
0C
14
24
24
44
84
FF
04
04
04
04
ENDCHAR
STARTCHAR 0035
ENCODING 53
SWIDTH 660 0
DWIDTH 11 0
BBX 9 12 1 0
BITMAP
7F00
4000
4000
4000
7E00
0100
0080
0080
8080
8080
4100
3E00
ENDCHAR
STARTCHAR 0036
ENCODING 54
SWIDTH 660 0
DWIDTH 11 0
BBX 9 12 1 0
BITMAP
0F00
3000
4000
4000
BE00
C100
8080
8080
8080
8080
4100
3E00
ENDCHAR
STARTCHAR 0037
ENCODING 55
SWIDTH 660 0
DWIDTH 11 0
BBX 9 12 1 0
BITMAP
7F80
8100
8200
0600
0400
0800
0800
1000
1000
3000
2000
2000
ENDCHAR
STARTCHAR 0038
ENCODING 56
SWIDTH 660 0
DWIDTH 11 0
BBX 9 12 1 0
BITMAP
1C00
2200
4100
4100
6200
3C00
6700
C180
8080
8080
4100
3E00
ENDCHAR
STARTCHAR 0039
ENCODING 57
SWIDTH 660 0
DWIDTH 11 0
BBX 9 12 1 0
BITMAP
3E00
4100
8080
8080
8080
8080
4180
3E80
0100
0100
0600
7800
ENDCHAR
STARTCHAR 003A
ENCODING 58
SWIDTH 300 0
DWIDTH 5 0
BBX 1 8 2 0
BITMAP
80
80
00
00
00
00
80
80
ENDCHAR
STARTCHAR 003B
ENCODING 59
SWIDTH 300 0
DWIDTH 5 0
BBX 3 11 1 -3
BITMAP
40
40
00
00
00
00
60
60
20
40
80
ENDCHAR
STARTCHAR 003C
ENCODING 60
SWIDTH 600 0
DWIDTH 10 0
BBX 7 7 1 2
BITMAP
02
1C
60
80
60
1C
02
ENDCHAR
STARTCHAR 003D
ENCODING 61
SWIDTH 600 0
DWIDTH 10 0
BBX 8 4 1 4
BITMAP
FF
00
00
FF
ENDCHAR
STARTCHAR 003E
ENCODING 62
SWIDTH 600 0
DWIDTH 10 0
BBX 7 7 1 2
BITMAP
80
70
0C
02
0C
70
80
ENDCHAR
STARTCHAR 003F
ENCODING 63
SWIDTH 540 0
DWIDTH 9 0
BBX 8 12 0 0
BITMAP
7E
C1
81
01
01
02
3C
20
20
00
20
20
ENDCHAR
STARTCHAR 0040
ENCODING 64
SWIDTH 840 0
DWIDTH 14 0
BBX 14 15 0 -3
BITMAP
0FC0
1020
2010
4008
8308
84C8
8848
9048
9088
9090
93A0
4C44
2008
1030
0FC0
ENDCHAR
STARTCHAR 0041
ENCODING 65
SWIDTH 720 0
DWIDTH 12 0
BBX 11 12 0 0
BITMAP
0400
0A00
0A00
0A00
1100
1100
1F00
2080
2080
2040
4040
E0E0
ENDCHAR
STARTCHAR 0042
ENCODING 66
SWIDTH 780 0
DWIDTH 13 0
BBX 11 12 1 0
BITMAP
FF80
4040
4020
4020
4040
7F80
4040
4020
4020
4020
4040
FF80
ENDCHAR
STARTCHAR 0043
ENCODING 67
SWIDTH 780 0
DWIDTH 13 0
BBX 11 12 1 0
BITMAP
1F40
20C0
4020
8020
8000
8000
8000
8000
8000
4020
20C0
1F00
ENDCHAR
STARTCHAR 0044
ENCODING 68
SWIDTH 840 0
DWIDTH 14 0
BBX 11 12 2 0
BITMAP
FF00
4080
4040
4020
4020
4020
4020
4020
4020
4040
4080
FF00
ENDCHAR
STARTCHAR 0045
ENCODING 69
SWIDTH 660 0
DWIDTH 11 0
BBX 9 12 2 0
BITMAP
FF00
4100
4080
4400
4400
7C00
4400
4400
4080
4080
4100
FF00
ENDCHAR
STARTCHAR 0046
ENCODING 70
SWIDTH 660 0
DWIDTH 11 0
BBX 9 12 2 0
BITMAP
FF00
4180
4080
4400
4400
7C00
4400
4400
4000
4000
4000
E000
ENDCHAR
STARTCHAR 0047
ENCODING 71
SWIDTH 840 0
DWIDTH 14 0
BBX 12 12 1 0
BITMAP
1F40
20C0
4020
8020
8000
8000
80F0
8020
8020
4020
2060
1FA0
ENDCHAR
STARTCHAR 0048
ENCODING 72
SWIDTH 840 0
DWIDTH 14 0
BBX 11 12 1 0
BITMAP
E0E0
4040
4040
4040
4040
7FC0
4040
4040
4040
4040
4040
E0E0
ENDCHAR
STARTCHAR 0049
ENCODING 73
SWIDTH 360 0
DWIDTH 6 0
BBX 3 12 1 0
BITMAP
E0
40
40
40
40
40
40
40
40
40
40
E0
ENDCHAR
STARTCHAR 004A
ENCODING 74
SWIDTH 600 0
DWIDTH 10 0
BBX 9 12 0 0
BITMAP
0380
0100
0100
0100
0100
0100
0100
0100
8100
8100
4200
3C00
ENDCHAR
STARTCHAR 004B
ENCODING 75
SWIDTH 720 0
DWIDTH 12 0
BBX 10 12 2 0
BITMAP
E3C0
4100
4200
4400
4800
5800
6800
4400
4200
4100
4100
E3C0
ENDCHAR
STARTCHAR 004C
ENCODING 76
SWIDTH 600 0
DWIDTH 10 0
BBX 8 12 2 0
BITMAP
E0
40
40
40
40
40
40
40
41
41
42
FE
ENDCHAR
STARTCHAR 004D
ENCODING 77
SWIDTH 960 0
DWIDTH 16 0
BBX 13 12 2 0
BITMAP
E038
6030
7030
5050
5050
4890
4890
4890
4510
4510
4710
E238
ENDCHAR
STARTCHAR 004E
ENCODING 78
SWIDTH 780 0
DWIDTH 13 0
BBX 10 12 1 0
BITMAP
E1C0
6080
5080
5080
4880
4880
4480
4280
4280
4180
4180
E080
ENDCHAR
STARTCHAR 004F
ENCODING 79
SWIDTH 840 0
DWIDTH 14 0
BBX 12 12 1 0
BITMAP
1F80
2040
4020
8010
8010
8010
8010
8010
8010
4020
2040
1F80
ENDCHAR
STARTCHAR 0050
ENCODING 80
SWIDTH 660 0
DWIDTH 11 0
BBX 10 12 1 0
BITMAP
FF00
4080
4040
4040
4040
4080
7F00
4000
4000
4000
4000
E000
ENDCHAR
STARTCHAR 0051
ENCODING 81
SWIDTH 840 0
DWIDTH 14 0
BBX 12 15 1 -3
BITMAP
1F80
2040
4020
8010
8010
8010
8010
8010
8010
4020
2040
1F80
0400
0600
03E0
ENDCHAR
STARTCHAR 0052
ENCODING 82
SWIDTH 720 0
DWIDTH 12 0
BBX 9 12 2 0
BITMAP
FE00
4100
4080
4080
4100
7E00
4800
4400
4400
4200
4100
E080
ENDCHAR
STARTCHAR 0053
ENCODING 83
SWIDTH 660 0
DWIDTH 11 0
BBX 9 12 1 0
BITMAP
3D00
4300
8180
8080
C000
3800
0600
0180
8080
C080
6100
5E00
ENDCHAR
STARTCHAR 0054
ENCODING 84
SWIDTH 660 0
DWIDTH 11 0
BBX 11 12 0 0
BITMAP
7FC0
C440
8420
0400
0400
0400
0400
0400
0400
0400
0400
0E00
ENDCHAR
STARTCHAR 0055
ENCODING 85
SWIDTH 780 0
DWIDTH 13 0
BBX 11 12 1 0
BITMAP
E0E0
4040
4040
4040
4040
4040
4040
4040
4040
4040
2080
1F00
ENDCHAR
STARTCHAR 0056
ENCODING 86
SWIDTH 720 0
DWIDTH 12 0
BBX 12 12 0 0
BITMAP
F070
2020
2020
1040
1040
1040
0880
0880
0500
0500
0500
0200
ENDCHAR
STARTCHAR 0057
ENCODING 87
SWIDTH 960 0
DWIDTH 16 0
BBX 15 12 1 0
BITMAP
E38E
4104
4104
2108
2288
2288
2290
14D0
1450
1450
1860
0820
ENDCHAR
STARTCHAR 0058
ENCODING 88
SWIDTH 720 0
DWIDTH 12 0
BBX 11 12 0 0
BITMAP
F0E0
2040
1080
0900
0A00
0600
0600
0A00
1100
2080
2040
F0E0
ENDCHAR
STARTCHAR 0059
ENCODING 89
SWIDTH 660 0
DWIDTH 11 0
BBX 9 12 0 0
BITMAP
F380
2100
2100
1200
1400
1400
0800
0800
0800
0800
0800
1C00
ENDCHAR
STARTCHAR 005A
ENCODING 90
SWIDTH 660 0
DWIDTH 11 0
BBX 11 12 0 0
BITMAP
7FC0
C080
8080
0100
0200
0400
0800
1000
2020
4020
4040
FFC0
ENDCHAR
STARTCHAR 005B
ENCODING 91
SWIDTH 300 0
DWIDTH 5 0
BBX 2 16 2 -4
BITMAP
C0
80
80
80
80
80
80
80
80
80
80
80
80
80
80
C0
ENDCHAR
STARTCHAR 005C
ENCODING 92
SWIDTH 600 0
DWIDTH 10 0
BBX 6 16 3 -3
BITMAP
80
80
80
40
40
40
20
20
20
10
10
10
08
08
08
04
ENDCHAR
STARTCHAR 005D
ENCODING 93
SWIDTH 300 0
DWIDTH 5 0
BBX 2 16 1 -4
BITMAP
C0
40
40
40
40
40
40
40
40
40
40
40
40
40
40
C0
ENDCHAR
STARTCHAR 005E
ENCODING 94
SWIDTH 600 0
DWIDTH 10 0
BBX 7 7 1 5
BITMAP
10
28
28
44
44
82
82
ENDCHAR
STARTCHAR 005F
ENCODING 95
SWIDTH 540 0
DWIDTH 9 0
BBX 9 1 0 -2
BITMAP
FF80
ENDCHAR
STARTCHAR 0060
ENCODING 96
SWIDTH 360 0
DWIDTH 6 0
BBX 3 2 1 10
BITMAP
C0
60
ENDCHAR
STARTCHAR 0061
ENCODING 97
SWIDTH 600 0
DWIDTH 10 0
BBX 9 8 1 0
BITMAP
7C00
8200
8200
1E00
6200
8200
8600
7B80
ENDCHAR
STARTCHAR 0062
ENCODING 98
SWIDTH 660 0
DWIDTH 11 0
BBX 9 13 1 0
BITMAP
4000
C000
4000
4000
4000
5E00
6100
4080
4080
4080
4080
6100
5E00
ENDCHAR
STARTCHAR 0063
ENCODING 99
SWIDTH 540 0
DWIDTH 9 0
BBX 7 8 1 0
BITMAP
3C
46
82
80
80
82
44
38
ENDCHAR
STARTCHAR 0064
ENCODING 100
SWIDTH 660 0
DWIDTH 11 0
BBX 9 13 1 0
BITMAP
0100
0300
0100
0100
0100
3D00
4300
8100
8100
8100
8100
4300
3D80
ENDCHAR
STARTCHAR 0065
ENCODING 101
SWIDTH 600 0
DWIDTH 10 0
BBX 8 8 1 0
BITMAP
3C
42
81
FF
80
81
42
3C
ENDCHAR
STARTCHAR 0066
ENCODING 102
SWIDTH 300 0
DWIDTH 5 0
BBX 5 13 1 0
BITMAP
38
48
40
40
40
E0
40
40
40
40
40
40
E0
ENDCHAR
STARTCHAR 0067
ENCODING 103
SWIDTH 540 0
DWIDTH 9 0
BBX 8 12 1 -4
BITMAP
3D
46
82
82
44
78
80
7E
43
81
82
7C
ENDCHAR
STARTCHAR 0068
ENCODING 104
SWIDTH 660 0
DWIDTH 11 0
BBX 9 13 1 0
BITMAP
4000
C000
4000
4000
4000
5E00
6100
4100
4100
4100
4100
4100
E380
ENDCHAR
STARTCHAR 0069
ENCODING 105
SWIDTH 300 0
DWIDTH 5 0
BBX 3 13 1 0
BITMAP
40
40
00
00
00
40
C0
40
40
40
40
40
E0
ENDCHAR
STARTCHAR 006A
ENCODING 106
SWIDTH 300 0
DWIDTH 5 0
BBX 5 17 -2 -4
BITMAP
08
08
00
00
00
08
18
08
08
08
08
08
08
08
08
C8
70
ENDCHAR
STARTCHAR 006B
ENCODING 107
SWIDTH 660 0
DWIDTH 11 0
BBX 10 13 1 0
BITMAP
4000
C000
4000
4000
4000
4780
4200
4C00
5800
6400
4200
4100
E3C0
ENDCHAR
STARTCHAR 006C
ENCODING 108
SWIDTH 300 0
DWIDTH 5 0
BBX 3 13 1 0
BITMAP
40
C0
40
40
40
40
40
40
40
40
40
40
E0
ENDCHAR
STARTCHAR 006D
ENCODING 109
SWIDTH 960 0
DWIDTH 16 0
BBX 15 8 1 0
BITMAP
5E78
E184
4104
4104
4104
4104
4104
E38E
ENDCHAR
STARTCHAR 006E
ENCODING 110
SWIDTH 660 0
DWIDTH 11 0
BBX 9 8 1 0
BITMAP
5E00
E100
4100
4100
4100
4100
4100
E380
ENDCHAR
STARTCHAR 006F
ENCODING 111
SWIDTH 600 0
DWIDTH 10 0
BBX 8 8 1 0
BITMAP
3C
42
81
81
81
81
42
3C
ENDCHAR
STARTCHAR 0070
ENCODING 112
SWIDTH 660 0
DWIDTH 11 0
BBX 9 12 1 -4
BITMAP
5E00
E100
4080
4080
4080
4080
6100
5E00
4000
4000
4000
E000
ENDCHAR
STARTCHAR 0071
ENCODING 113
SWIDTH 600 0
DWIDTH 10 0
BBX 9 12 1 -4
BITMAP
3D00
4300
8100
8100
8100
8100
4300
3D00
0100
0100
0100
0380
ENDCHAR
STARTCHAR 0072
ENCODING 114
SWIDTH 420 0
DWIDTH 7 0
BBX 6 8 1 0
BITMAP
5C
E4
40
40
40
40
40
E0
ENDCHAR
STARTCHAR 0073
ENCODING 115
SWIDTH 540 0
DWIDTH 9 0
BBX 7 8 1 0
BITMAP
74
8E
82
70
1C
82
E2
5C
ENDCHAR
STARTCHAR 0074
ENCODING 116
SWIDTH 360 0
DWIDTH 6 0
BBX 4 11 1 0
BITMAP
40
40
40
F0
40
40
40
40
40
40
70
ENDCHAR
STARTCHAR 0075
ENCODING 117
SWIDTH 720 0
DWIDTH 12 0
BBX 9 8 1 0
BITMAP
C300
4100
4100
4100
4100
4100
4300
3D80
ENDCHAR
STARTCHAR 0076
ENCODING 118
SWIDTH 540 0
DWIDTH 9 0
BBX 7 8 1 0
BITMAP
EE
44
44
44
28
28
28
10
ENDCHAR
STARTCHAR 0077
ENCODING 119
SWIDTH 780 0
DWIDTH 13 0
BBX 13 8 0 0
BITMAP
F7B8
2110
2310
2310
14A0
14A0
14A0
0840
ENDCHAR
STARTCHAR 0078
ENCODING 120
SWIDTH 600 0
DWIDTH 10 0
BBX 10 8 0 0
BITMAP
F9C0
2100
1200
0C00
0C00
1200
2100
F3C0
ENDCHAR
STARTCHAR 0079
ENCODING 121
SWIDTH 540 0
DWIDTH 9 0
BBX 9 12 0 -4
BITMAP
E380
4100
2200
2200
1200
1400
1400
0800
0800
0800
9000
E000
ENDCHAR
STARTCHAR 007A
ENCODING 122
SWIDTH 480 0
DWIDTH 8 0
BBX 8 8 0 0
BITMAP
7F
C2
84
08
10
21
43
FE
ENDCHAR
STARTCHAR 007B
ENCODING 123
SWIDTH 300 0
DWIDTH 5 0
BBX 5 16 1 -4
BITMAP
08
30
20
20
20
20
40
80
40
20
20
20
20
20
10
08
ENDCHAR
STARTCHAR 007C
ENCODING 124
SWIDTH 600 0
DWIDTH 10 0
BBX 1 16 5 -3
BITMAP
80
80
80
80
80
80
80
80
80
80
80
80
80
80
80
80
ENDCHAR
STARTCHAR 007D
ENCODING 125
SWIDTH 300 0
DWIDTH 5 0
BBX 5 16 0 -4
BITMAP
80
60
20
20
20
20
10
08
10
20
20
20
20
20
40
80
ENDCHAR
STARTCHAR 007E
ENCODING 126
SWIDTH 600 0
DWIDTH 10 0
BBX 7 2 1 5
BITMAP
66
DC
ENDCHAR
STARTCHAR 00A0
ENCODING 160
SWIDTH 360 0
DWIDTH 6 0
BBX 1 1 0 0
BITMAP
00
ENDCHAR
STARTCHAR 00A1
ENCODING 161
SWIDTH 300 0
DWIDTH 5 0
BBX 1 12 1 -4
BITMAP
80
80
00
80
80
80
80
80
80
80
80
80
ENDCHAR
STARTCHAR 00A2
ENCODING 162
SWIDTH 660 0
DWIDTH 11 0
BBX 8 12 2 0
BITMAP
08
08
3E
4B
8B
88
88
89
6A
3C
08
08
ENDCHAR
STARTCHAR 00A3
ENCODING 163
SWIDTH 660 0
DWIDTH 11 0
BBX 11 12 0 0
BITMAP
1F00
2080
2040
2040
2000
FC00
3000
1000
7020
9020
9840
77C0
ENDCHAR
STARTCHAR 00A4
ENCODING 164
SWIDTH 600 0
DWIDTH 10 0
BBX 7 8 1 2
BITMAP
BA
44
82
82
82
82
44
BA
ENDCHAR
STARTCHAR 00A5
ENCODING 165
SWIDTH 660 0
DWIDTH 11 0
BBX 9 12 0 0
BITMAP
7380
2100
2100
1200
1200
1400
FF80
0800
FF80
0800
0800
1C00
ENDCHAR
STARTCHAR 00A6
ENCODING 166
SWIDTH 600 0
DWIDTH 10 0
BBX 1 16 5 -3
BITMAP
80
80
80
80
80
80
00
00
80
80
80
80
80
80
80
80
ENDCHAR
STARTCHAR 00A7
ENCODING 167
SWIDTH 540 0
DWIDTH 9 0
BBX 8 15 0 -3
BITMAP
7E
83
83
80
F8
C7
81
81
81
F2
0E
01
C1
C1
7E
ENDCHAR
STARTCHAR 00A8
ENCODING 168
SWIDTH 420 0
DWIDTH 7 0
BBX 3 2 1 10
BITMAP
A0
A0
ENDCHAR
STARTCHAR 00A9
ENCODING 169
SWIDTH 780 0
DWIDTH 13 0
BBX 12 12 1 0
BITMAP
1F80
2040
4020
8790
9890
9010
9010
9810
8F90
4020
2040
1F80
ENDCHAR
STARTCHAR 00AA
ENCODING 170
SWIDTH 420 0
DWIDTH 7 0
BBX 6 5 1 7
BITMAP
78
88
78
88
FC
ENDCHAR
STARTCHAR 00AB
ENCODING 171
SWIDTH 360 0
DWIDTH 6 0
BBX 6 6 1 1
BITMAP
24
48
90
90
48
24
ENDCHAR
STARTCHAR 00AC
ENCODING 172
SWIDTH 600 0
DWIDTH 10 0
BBX 8 6 1 0
BITMAP
FF
01
01
01
01
01
ENDCHAR
STARTCHAR 00AD
ENCODING 173
SWIDTH 420 0
DWIDTH 7 0
BBX 5 1 1 4
BITMAP
F8
ENDCHAR
STARTCHAR 00AE
ENCODING 174
SWIDTH 780 0
DWIDTH 13 0
BBX 12 12 1 0
BITMAP
1F80
2040
4020
BF10
9090
9090
9F10
9310
B8D0
4020
2040
1F80
ENDCHAR
STARTCHAR 00AF
ENCODING 175
SWIDTH 540 0
DWIDTH 9 0
BBX 9 1 0 12
BITMAP
FF80
ENDCHAR
STARTCHAR 00B0
ENCODING 176
SWIDTH 420 0
DWIDTH 7 0
BBX 5 5 1 7
BITMAP
70
88
88
88
70
ENDCHAR
STARTCHAR 00B1
ENCODING 177
SWIDTH 540 0
DWIDTH 9 0
BBX 9 11 0 1
BITMAP
0800
0800
0800
0800
FF80
0800
0800
0800
0800
0000
FF80
ENDCHAR
STARTCHAR 00B2
ENCODING 178
SWIDTH 360 0
DWIDTH 6 0
BBX 5 6 0 6
BITMAP
70
88
88
10
68
F8
ENDCHAR
STARTCHAR 00B3
ENCODING 179
SWIDTH 360 0
DWIDTH 6 0
BBX 5 6 0 6
BITMAP
F8
08
30
08
88
70
ENDCHAR
STARTCHAR 00B4
ENCODING 180
SWIDTH 360 0
DWIDTH 6 0
BBX 3 2 1 10
BITMAP
60
C0
ENDCHAR
STARTCHAR 00B5
ENCODING 181
SWIDTH 600 0
DWIDTH 10 0
BBX 8 11 1 -3
BITMAP
82
82
82
82
82
82
86
FB
80
80
80
ENDCHAR
STARTCHAR 00B6
ENCODING 182
SWIDTH 600 0
DWIDTH 10 0
BBX 8 15 1 -4
BITMAP
7F
FA
FA
FA
FA
7A
0A
0A
0A
0A
0A
0A
0A
0A
0A
ENDCHAR
STARTCHAR 00B7
ENCODING 183
SWIDTH 240 0
DWIDTH 4 0
BBX 1 2 1 5
BITMAP
80
80
ENDCHAR
STARTCHAR 00B8
ENCODING 184
SWIDTH 300 0
DWIDTH 5 0
BBX 4 4 1 -4
BITMAP
20
70
10
F0
ENDCHAR
STARTCHAR 00B9
ENCODING 185
SWIDTH 360 0
DWIDTH 6 0
BBX 3 6 2 6
BITMAP
C0
40
40
40
40
E0
ENDCHAR
STARTCHAR 00BA
ENCODING 186
SWIDTH 420 0
DWIDTH 7 0
BBX 5 5 1 7
BITMAP
70
88
88
88
70
ENDCHAR
STARTCHAR 00BB
ENCODING 187
SWIDTH 360 0
DWIDTH 6 0
BBX 6 6 1 1
BITMAP
90
48
24
24
48
90
ENDCHAR
STARTCHAR 00BC
ENCODING 188
SWIDTH 960 0
DWIDTH 16 0
BBX 12 12 2 0
BITMAP
C040
4080
4080
4100
4200
E260
0460
08A0
0920
11F0
2020
2020
ENDCHAR
STARTCHAR 00BD
ENCODING 189
SWIDTH 960 0
DWIDTH 16 0
BBX 12 12 2 0
BITMAP
C040
4080
4080
4100
4200
E200
04E0
0910
0910
1020
20D0
21F0
ENDCHAR
STARTCHAR 00BE
ENCODING 190
SWIDTH 960 0
DWIDTH 16 0
BBX 14 12 0 0
BITMAP
F810
0820
3020
0840
8880
7098
0118
0228
0248
047C
0808
0808
ENDCHAR
STARTCHAR 00BF
ENCODING 191
SWIDTH 540 0
DWIDTH 9 0
BBX 8 12 0 -4
BITMAP
04
04
00
04
04
3C
40
80
80
81
83
7E
ENDCHAR
STARTCHAR 00C0
ENCODING 192
SWIDTH 720 0
DWIDTH 12 0
BBX 11 15 0 0
BITMAP
0C00
0600
0000
0400
0A00
0A00
0A00
1100
1100
1F00
2080
2080
2040
4040
E0E0
ENDCHAR
STARTCHAR 00C1
ENCODING 193
SWIDTH 720 0
DWIDTH 12 0
BBX 11 15 0 0
BITMAP
0600
0C00
0000
0400
0A00
0A00
0A00
1100
1100
1F00
2080
2080
2040
4040
E0E0
ENDCHAR
STARTCHAR 00C2
ENCODING 194
SWIDTH 720 0
DWIDTH 12 0
BBX 11 15 0 0
BITMAP
0400
1B00
0000
0400
0A00
0A00
0A00
1100
1100
1F00
2080
2080
2040
4040
E0E0
ENDCHAR
STARTCHAR 00C3
ENCODING 195
SWIDTH 720 0
DWIDTH 12 0
BBX 11 15 0 0
BITMAP
1900
1600
0000
0400
0A00
0A00
0A00
1100
1100
1F00
2080
2080
2040
4040
E0E0
ENDCHAR
STARTCHAR 00C4
ENCODING 196
SWIDTH 720 0
DWIDTH 12 0
BBX 11 15 0 0
BITMAP
0A00
0A00
0000
0400
0A00
0A00
0A00
1100
1100
1F00
2080
2080
2040
4040
E0E0
ENDCHAR
STARTCHAR 00C5
ENCODING 197
SWIDTH 720 0
DWIDTH 12 0
BBX 11 17 0 0
BITMAP
0C00
1200
1200
0C00
0000
0400
0A00
0A00
0A00
1100
1100
1F00
2080
2080
2040
4040
E0E0
ENDCHAR
STARTCHAR 00C6
ENCODING 198
SWIDTH 1260 0
DWIDTH 21 0
BBX 20 12 0 0
BITMAP
03FFC0
011060
011020
021100
021100
07FF00
081100
081100
101010
101030
201060
F03FE0
ENDCHAR
STARTCHAR 00C7
ENCODING 199
SWIDTH 780 0
DWIDTH 13 0
BBX 11 16 1 -4
BITMAP
1F40
20C0
4020
8020
8000
8000
8000
8000
8000
4020
20C0
1F00
0400
0E00
0200
1E00
ENDCHAR
STARTCHAR 00C8
ENCODING 200
SWIDTH 660 0
DWIDTH 11 0
BBX 9 15 2 0
BITMAP
3000
1800
0000
FF00
4100
4080
4400
4400
7C00
4400
4400
4080
4080
4100
FF00
ENDCHAR
STARTCHAR 00C9
ENCODING 201
SWIDTH 660 0
DWIDTH 11 0
BBX 9 15 2 0
BITMAP
0C00
1800
0000
FF00
4100
4080
4400
4400
7C00
4400
4400
4080
4080
4100
FF00
ENDCHAR
STARTCHAR 00CA
ENCODING 202
SWIDTH 660 0
DWIDTH 11 0
BBX 9 15 2 0
BITMAP
0800
3600
0000
FF00
4100
4080
4400
4400
7C00
4400
4400
4080
4080
4100
FF00
ENDCHAR
STARTCHAR 00CB
ENCODING 203
SWIDTH 660 0
DWIDTH 11 0
BBX 9 15 2 0
BITMAP
1400
1400
0000
FF00
4100
4080
4400
4400
7C00
4400
4400
4080
4080
4100
FF00
ENDCHAR
STARTCHAR 00CC
ENCODING 204
SWIDTH 360 0
DWIDTH 6 0
BBX 3 15 1 0
BITMAP
C0
60
00
E0
40
40
40
40
40
40
40
40
40
40
E0
ENDCHAR
STARTCHAR 00CD
ENCODING 205
SWIDTH 360 0
DWIDTH 6 0
BBX 3 15 1 0
BITMAP
60
C0
00
E0
40
40
40
40
40
40
40
40
40
40
E0
ENDCHAR
STARTCHAR 00CE
ENCODING 206
SWIDTH 360 0
DWIDTH 6 0
BBX 5 15 0 0
BITMAP
20
D8
00
70
20
20
20
20
20
20
20
20
20
20
70
ENDCHAR
STARTCHAR 00CF
ENCODING 207
SWIDTH 360 0
DWIDTH 6 0
BBX 3 15 1 0
BITMAP
A0
A0
00
E0
40
40
40
40
40
40
40
40
40
40
E0
ENDCHAR
STARTCHAR 00D0
ENCODING 208
SWIDTH 840 0
DWIDTH 14 0
BBX 11 12 2 0
BITMAP
FF00
4080
4040
4020
4020
FC20
4020
4020
4020
4040
4080
FF00
ENDCHAR
STARTCHAR 00D1
ENCODING 209
SWIDTH 780 0
DWIDTH 13 0
BBX 10 15 1 0
BITMAP
3200
2C00
0000
E1C0
6080
5080
5080
4880
4880
4480
4280
4280
4180
4180
E080
ENDCHAR
STARTCHAR 00D2
ENCODING 210
SWIDTH 840 0
DWIDTH 14 0
BBX 12 15 1 0
BITMAP
0C00
0600
0000
1F80
2040
4020
8010
8010
8010
8010
8010
8010
4020
2040
1F80
ENDCHAR
STARTCHAR 00D3
ENCODING 211
SWIDTH 840 0
DWIDTH 14 0
BBX 12 15 1 0
BITMAP
0300
0600
0000
1F80
2040
4020
8010
8010
8010
8010
8010
8010
4020
2040
1F80
ENDCHAR
STARTCHAR 00D4
ENCODING 212
SWIDTH 840 0
DWIDTH 14 0
BBX 12 15 1 0
BITMAP
0200
0D80
0000
1F80
2040
4020
8010
8010
8010
8010
8010
8010
4020
2040
1F80
ENDCHAR
STARTCHAR 00D5
ENCODING 213
SWIDTH 840 0
DWIDTH 14 0
BBX 12 15 1 0
BITMAP
0C80
0B00
0000
1F80
2040
4020
8010
8010
8010
8010
8010
8010
4020
2040
1F80
ENDCHAR
STARTCHAR 00D6
ENCODING 214
SWIDTH 840 0
DWIDTH 14 0
BBX 12 15 1 0
BITMAP
0A00
0A00
0000
1F80
2040
4020
8010
8010
8010
8010
8010
8010
4020
2040
1F80
ENDCHAR
STARTCHAR 00D7
ENCODING 215
SWIDTH 600 0
DWIDTH 10 0
BBX 7 7 2 2
BITMAP
82
44
28
10
28
44
82
ENDCHAR
STARTCHAR 00D8
ENCODING 216
SWIDTH 840 0
DWIDTH 14 0
BBX 12 12 1 0
BITMAP
1F10
20E0
4060
80A0
8110
8210
8410
8810
D010
6020
6040
9F80
ENDCHAR
STARTCHAR 00D9
ENCODING 217
SWIDTH 780 0
DWIDTH 13 0
BBX 11 15 1 0
BITMAP
0C00
0600
0000
E0E0
4040
4040
4040
4040
4040
4040
4040
4040
4040
2080
1F00
ENDCHAR
STARTCHAR 00DA
ENCODING 218
SWIDTH 780 0
DWIDTH 13 0
BBX 11 15 1 0
BITMAP
0600
0C00
0000
E0E0
4040
4040
4040
4040
4040
4040
4040
4040
4040
2080
1F00
ENDCHAR
STARTCHAR 00DB
ENCODING 219
SWIDTH 780 0
DWIDTH 13 0
BBX 11 15 1 0
BITMAP
0400
1B00
0000
E0E0
4040
4040
4040
4040
4040
4040
4040
4040
4040
2080
1F00
ENDCHAR
STARTCHAR 00DC
ENCODING 220
SWIDTH 780 0
DWIDTH 13 0
BBX 11 15 1 0
BITMAP
0A00
0A00
0000
E0E0
4040
4040
4040
4040
4040
4040
4040
4040
4040
2080
1F00
ENDCHAR
STARTCHAR 00DD
ENCODING 221
SWIDTH 660 0
DWIDTH 11 0
BBX 9 15 0 0
BITMAP
0C00
1800
0000
F380
2100
2100
1200
1400
1400
0800
0800
0800
0800
0800
1C00
ENDCHAR
STARTCHAR 00DE
ENCODING 222
SWIDTH 660 0
DWIDTH 11 0
BBX 9 12 2 0
BITMAP
E000
4000
4000
7E00
4100
4080
4080
4100
7E00
4000
4000
E000
ENDCHAR
STARTCHAR 00DF
ENCODING 223
SWIDTH 660 0
DWIDTH 11 0
BBX 9 13 1 0
BITMAP
1C00
2200
4200
4600
4800
C800
4C00
4200
4100
4080
5080
5100
CE00
ENDCHAR
STARTCHAR 00E0
ENCODING 224
SWIDTH 600 0
DWIDTH 10 0
BBX 9 12 1 0
BITMAP
3000
1800
0000
0000
7C00
8200
8200
1E00
6200
8200
8600
7B80
ENDCHAR
STARTCHAR 00E1
ENCODING 225
SWIDTH 600 0
DWIDTH 10 0
BBX 9 12 1 0
BITMAP
1800
3000
0000
0000
7C00
8200
8200
1E00
6200
8200
8600
7B80
ENDCHAR
STARTCHAR 00E2
ENCODING 226
SWIDTH 600 0
DWIDTH 10 0
BBX 9 12 1 0
BITMAP
1000
6C00
0000
0000
7C00
8200
8200
1E00
6200
8200
8600
7B80
ENDCHAR
STARTCHAR 00E3
ENCODING 227
SWIDTH 600 0
DWIDTH 10 0
BBX 9 12 1 0
BITMAP
6400
5800
0000
0000
7C00
8200
8200
1E00
6200
8200
8600
7B80
ENDCHAR
STARTCHAR 00E4
ENCODING 228
SWIDTH 600 0
DWIDTH 10 0
BBX 9 12 1 0
BITMAP
2800
2800
0000
0000
7C00
8200
8200
1E00
6200
8200
8600
7B80
ENDCHAR
STARTCHAR 00E5
ENCODING 229
SWIDTH 600 0
DWIDTH 10 0
BBX 9 14 1 0
BITMAP
1800
2400
2400
1800
0000
0000
7C00
8200
8200
1E00
6200
8200
8600
7B80
ENDCHAR
STARTCHAR 00E6
ENCODING 230
SWIDTH 900 0
DWIDTH 15 0
BBX 13 8 1 0
BITMAP
7CE0
C310
C208
1FF8
6200
8208
8518
78E0
ENDCHAR
STARTCHAR 00E7
ENCODING 231
SWIDTH 540 0
DWIDTH 9 0
BBX 7 12 1 -4
BITMAP
3C
46
82
80
80
82
44
38
10
38
08
78
ENDCHAR
STARTCHAR 00E8
ENCODING 232
SWIDTH 600 0
DWIDTH 10 0
BBX 8 12 1 0
BITMAP
18
0C
00
00
3C
42
81
FF
80
81
42
3C
ENDCHAR
STARTCHAR 00E9
ENCODING 233
SWIDTH 600 0
DWIDTH 10 0
BBX 8 12 1 0
BITMAP
0C
18
00
00
3C
42
81
FF
80
81
42
3C
ENDCHAR
STARTCHAR 00EA
ENCODING 234
SWIDTH 600 0
DWIDTH 10 0
BBX 8 12 1 0
BITMAP
08
36
00
00
3C
42
81
FF
80
81
42
3C
ENDCHAR
STARTCHAR 00EB
ENCODING 235
SWIDTH 600 0
DWIDTH 10 0
BBX 8 12 1 0
BITMAP
28
28
00
00
3C
42
81
FF
80
81
42
3C
ENDCHAR
STARTCHAR 00EC
ENCODING 236
SWIDTH 300 0
DWIDTH 5 0
BBX 3 12 1 0
BITMAP
C0
60
00
00
40
C0
40
40
40
40
40
E0
ENDCHAR
STARTCHAR 00ED
ENCODING 237
SWIDTH 300 0
DWIDTH 5 0
BBX 3 12 1 0
BITMAP
60
C0
00
00
40
C0
40
40
40
40
40
E0
ENDCHAR
STARTCHAR 00EE
ENCODING 238
SWIDTH 300 0
DWIDTH 5 0
BBX 5 12 0 0
BITMAP
20
D8
00
00
20
60
20
20
20
20
20
70
ENDCHAR
STARTCHAR 00EF
ENCODING 239
SWIDTH 300 0
DWIDTH 5 0
BBX 3 12 1 0
BITMAP
A0
A0
00
00
40
C0
40
40
40
40
40
E0
ENDCHAR
STARTCHAR 00F0
ENCODING 240
SWIDTH 600 0
DWIDTH 10 0
BBX 8 13 1 0
BITMAP
13
1C
24
06
02
3D
43
81
81
81
81
42
3C
ENDCHAR
STARTCHAR 00F1
ENCODING 241
SWIDTH 660 0
DWIDTH 11 0
BBX 9 12 1 0
BITMAP
3200
2C00
0000
0000
5E00
E100
4100
4100
4100
4100
4100
E380
ENDCHAR
STARTCHAR 00F2
ENCODING 242
SWIDTH 600 0
DWIDTH 10 0
BBX 8 12 1 0
BITMAP
18
0C
00
00
3C
42
81
81
81
81
42
3C
ENDCHAR
STARTCHAR 00F3
ENCODING 243
SWIDTH 600 0
DWIDTH 10 0
BBX 8 12 1 0
BITMAP
0C
18
00
00
3C
42
81
81
81
81
42
3C
ENDCHAR
STARTCHAR 00F4
ENCODING 244
SWIDTH 600 0
DWIDTH 10 0
BBX 8 12 1 0
BITMAP
08
36
00
00
3C
42
81
81
81
81
42
3C
ENDCHAR
STARTCHAR 00F5
ENCODING 245
SWIDTH 600 0
DWIDTH 10 0
BBX 8 12 1 0
BITMAP
32
2C
00
00
3C
42
81
81
81
81
42
3C
ENDCHAR
STARTCHAR 00F6
ENCODING 246
SWIDTH 600 0
DWIDTH 10 0
BBX 8 12 1 0
BITMAP
28
28
00
00
3C
42
81
81
81
81
42
3C
ENDCHAR
STARTCHAR 00F7
ENCODING 247
SWIDTH 540 0
DWIDTH 9 0
BBX 7 5 0 2
BITMAP
10
00
FE
00
10
ENDCHAR
STARTCHAR 00F8
ENCODING 248
SWIDTH 600 0
DWIDTH 10 0
BBX 8 8 1 0
BITMAP
3D
42
85
89
91
A1
42
BC
ENDCHAR
STARTCHAR 00F9
ENCODING 249
SWIDTH 720 0
DWIDTH 12 0
BBX 9 12 1 0
BITMAP
1800
0C00
0000
0000
C300
4100
4100
4100
4100
4100
4300
3D80
ENDCHAR
STARTCHAR 00FA
ENCODING 250
SWIDTH 720 0
DWIDTH 12 0
BBX 9 12 1 0
BITMAP
0C00
1800
0000
0000
C300
4100
4100
4100
4100
4100
4300
3D80
ENDCHAR
STARTCHAR 00FB
ENCODING 251
SWIDTH 720 0
DWIDTH 12 0
BBX 9 12 1 0
BITMAP
0800
3600
0000
0000
C300
4100
4100
4100
4100
4100
4300
3D80
ENDCHAR
STARTCHAR 00FC
ENCODING 252
SWIDTH 720 0
DWIDTH 12 0
BBX 9 12 1 0
BITMAP
1400
1400
0000
0000
C300
4100
4100
4100
4100
4100
4300
3D80
ENDCHAR
STARTCHAR 00FD
ENCODING 253
SWIDTH 540 0
DWIDTH 9 0
BBX 9 16 0 -4
BITMAP
0C00
1800
0000
0000
E380
4100
2200
2200
1200
1400
1400
0800
0800
0800
9000
E000
ENDCHAR
STARTCHAR 00FE
ENCODING 254
SWIDTH 660 0
DWIDTH 11 0
BBX 9 17 1 -4
BITMAP
4000
C000
4000
4000
4000
5E00
6100
4080
4080
4080
4080
6100
5E00
4000
4000
4000
E000
ENDCHAR
STARTCHAR 00FF
ENCODING 255
SWIDTH 540 0
DWIDTH 9 0
BBX 9 16 0 -4
BITMAP
1400
1400
0000
0000
E380
4100
2200
2200
1200
1400
1400
0800
0800
0800
9000
E000
ENDCHAR
STARTCHAR 0100
ENCODING 256
SWIDTH 720 0
DWIDTH 12 0
BBX 11 14 0 0
BITMAP
1F00
0000
0400
0A00
0A00
0A00
1100
1100
1F00
2080
2080
2040
4040
E0E0
ENDCHAR
STARTCHAR 0101
ENCODING 257
SWIDTH 600 0
DWIDTH 10 0
BBX 9 11 1 0
BITMAP
7C00
0000
0000
7C00
8200
8200
1E00
6200
8200
8600
7B80
ENDCHAR
STARTCHAR 0102
ENCODING 258
SWIDTH 720 0
DWIDTH 12 0
BBX 11 15 0 0
BITMAP
1080
0F00
0000
0400
0A00
0A00
0A00
1100
1100
1F00
2080
2080
2040
4040
E0E0
ENDCHAR
STARTCHAR 0103
ENCODING 259
SWIDTH 600 0
DWIDTH 10 0
BBX 9 12 1 0
BITMAP
4200
3C00
0000
0000
7C00
8200
8200
1E00
6200
8200
8600
7B80
ENDCHAR
STARTCHAR 0104
ENCODING 260
SWIDTH 720 0
DWIDTH 12 0
BBX 11 15 0 -3
BITMAP
0400
0A00
0A00
0A00
1100
1100
1F00
2080
2080
2040
4040
E0E0
0040
0080
00C0
ENDCHAR
STARTCHAR 0105
ENCODING 261
SWIDTH 600 0
DWIDTH 10 0
BBX 9 11 1 -3
BITMAP
7C00
8200
8200
1E00
6200
8200
8600
7B80
0100
0200
0300
ENDCHAR
STARTCHAR 0106
ENCODING 262
SWIDTH 780 0
DWIDTH 13 0
BBX 11 15 1 0
BITMAP
0300
0600
0000
1F40
20C0
4020
8020
8000
8000
8000
8000
8000
4020
20C0
1F00
ENDCHAR
STARTCHAR 0107
ENCODING 263
SWIDTH 540 0
DWIDTH 9 0
BBX 7 12 1 0
BITMAP
18
30
00
00
3C
46
82
80
80
82
44
38
ENDCHAR
STARTCHAR 0108
ENCODING 264
SWIDTH 780 0
DWIDTH 13 0
BBX 11 15 1 0
BITMAP
0400
1B00
0000
1F40
20C0
4020
8020
8000
8000
8000
8000
8000
4020
20C0
1F00
ENDCHAR
STARTCHAR 0109
ENCODING 265
SWIDTH 540 0
DWIDTH 9 0
BBX 7 12 1 0
BITMAP
10
6C
00
00
3C
46
82
80
80
82
44
38
ENDCHAR
STARTCHAR 010A
ENCODING 266
SWIDTH 780 0
DWIDTH 13 0
BBX 11 15 1 0
BITMAP
0400
0400
0000
1F40
20C0
4020
8020
8000
8000
8000
8000
8000
4020
20C0
1F00
ENDCHAR
STARTCHAR 010B
ENCODING 267
SWIDTH 540 0
DWIDTH 9 0
BBX 7 12 1 0
BITMAP
10
10
00
00
3C
46
82
80
80
82
44
38
ENDCHAR
STARTCHAR 010C
ENCODING 268
SWIDTH 780 0
DWIDTH 13 0
BBX 11 15 1 0
BITMAP
1B00
0400
0000
1F40
20C0
4020
8020
8000
8000
8000
8000
8000
4020
20C0
1F00
ENDCHAR
STARTCHAR 010D
ENCODING 269
SWIDTH 540 0
DWIDTH 9 0
BBX 7 12 1 0
BITMAP
6C
10
00
00
3C
46
82
80
80
82
44
38
ENDCHAR
STARTCHAR 010E
ENCODING 270
SWIDTH 840 0
DWIDTH 14 0
BBX 11 15 2 0
BITMAP
1B00
0400
0000
FF00
4080
4040
4020
4020
4020
4020
4020
4020
4040
4080
FF00
ENDCHAR
STARTCHAR 010F
ENCODING 271
SWIDTH 660 0
DWIDTH 11 0
BBX 11 13 1 0
BITMAP
0160
0320
0120
0140
0100
3D00
4300
8100
8100
8100
8100
4300
3D80
ENDCHAR
STARTCHAR 0110
ENCODING 272
SWIDTH 840 0
DWIDTH 14 0
BBX 11 12 2 0
BITMAP
FF00
4080
4040
4020
4020
FC20
4020
4020
4020
4040
4080
FF00
ENDCHAR
STARTCHAR 0111
ENCODING 273
SWIDTH 660 0
DWIDTH 11 0
BBX 9 13 1 0
BITMAP
0100
0700
0100
1F80
0100
3D00
4300
8100
8100
8100
8100
4300
3D80
ENDCHAR
STARTCHAR 0112
ENCODING 274
SWIDTH 660 0
DWIDTH 11 0
BBX 9 14 2 0
BITMAP
3E00
0000
FF00
4100
4080
4400
4400
7C00
4400
4400
4080
4080
4100
FF00
ENDCHAR
STARTCHAR 0113
ENCODING 275
SWIDTH 600 0
DWIDTH 10 0
BBX 8 11 1 0
BITMAP
3E
00
00
3C
42
81
FF
80
81
42
3C
ENDCHAR
STARTCHAR 0114
ENCODING 276
SWIDTH 660 0
DWIDTH 11 0
BBX 9 15 2 0
BITMAP
4200
3C00
0000
FF00
4100
4080
4400
4400
7C00
4400
4400
4080
4080
4100
FF00
ENDCHAR
STARTCHAR 0115
ENCODING 277
SWIDTH 600 0
DWIDTH 10 0
BBX 8 12 1 0
BITMAP
42
3C
00
00
3C
42
81
FF
80
81
42
3C
ENDCHAR
STARTCHAR 0116
ENCODING 278
SWIDTH 660 0
DWIDTH 11 0
BBX 9 15 2 0
BITMAP
0800
0800
0000
FF00
4100
4080
4400
4400
7C00
4400
4400
4080
4080
4100
FF00
ENDCHAR
STARTCHAR 0117
ENCODING 279
SWIDTH 600 0
DWIDTH 10 0
BBX 8 12 1 0
BITMAP
10
10
00
00
3C
42
81
FF
80
81
42
3C
ENDCHAR
STARTCHAR 0118
ENCODING 280
SWIDTH 660 0
DWIDTH 11 0
BBX 9 15 2 -3
BITMAP
FF00
4100
4080
4400
4400
7C00
4400
4400
4080
4080
4100
FF00
0200
0400
0600
ENDCHAR
STARTCHAR 0119
ENCODING 281
SWIDTH 600 0
DWIDTH 10 0
BBX 8 11 1 -3
BITMAP
3C
42
81
FF
80
81
42
3C
08
10
18
ENDCHAR
STARTCHAR 011A
ENCODING 282
SWIDTH 660 0
DWIDTH 11 0
BBX 9 15 2 0
BITMAP
3600
0800
0000
FF00
4100
4080
4400
4400
7C00
4400
4400
4080
4080
4100
FF00
ENDCHAR
STARTCHAR 011B
ENCODING 283
SWIDTH 600 0
DWIDTH 10 0
BBX 8 12 1 0
BITMAP
36
08
00
00
3C
42
81
FF
80
81
42
3C
ENDCHAR
STARTCHAR 011C
ENCODING 284
SWIDTH 840 0
DWIDTH 14 0
BBX 12 15 1 0
BITMAP
0400
1B00
0000
1F40
20C0
4020
8020
8000
8000
80F0
8020
8020
4020
2060
1FA0
ENDCHAR
STARTCHAR 011D
ENCODING 285
SWIDTH 540 0
DWIDTH 9 0
BBX 8 16 1 -4
BITMAP
08
36
00
00
3D
46
82
82
44
78
80
7E
43
81
82
7C
ENDCHAR
STARTCHAR 011E
ENCODING 286
SWIDTH 840 0
DWIDTH 14 0
BBX 12 15 1 0
BITMAP
1080
0F00
0000
1F40
20C0
4020
8020
8000
8000
80F0
8020
8020
4020
2060
1FA0
ENDCHAR
STARTCHAR 011F
ENCODING 287
SWIDTH 540 0
DWIDTH 9 0
BBX 8 16 1 -4
BITMAP
42
3C
00
00
3D
46
82
82
44
78
80
7E
43
81
82
7C
ENDCHAR
STARTCHAR 0120
ENCODING 288
SWIDTH 840 0
DWIDTH 14 0
BBX 12 15 1 0
BITMAP
0400
0400
0000
1F40
20C0
4020
8020
8000
8000
80F0
8020
8020
4020
2060
1FA0
ENDCHAR
STARTCHAR 0121
ENCODING 289
SWIDTH 540 0
DWIDTH 9 0
BBX 8 16 1 -4
BITMAP
08
08
00
00
3D
46
82
82
44
78
80
7E
43
81
82
7C
ENDCHAR
STARTCHAR 0122
ENCODING 290
SWIDTH 840 0
DWIDTH 14 0
BBX 12 16 1 -4
BITMAP
1F40
20C0
4020
8020
8000
8000
80F0
8020
8020
4020
2060
1FA0
0400
0E00
0200
1E00
ENDCHAR
STARTCHAR 0123
ENCODING 291
SWIDTH 540 0
DWIDTH 9 0
BBX 8 17 1 -4
BITMAP
08
10
10
00
00
3D
46
82
82
44
78
80
7E
43
81
82
7C
ENDCHAR
STARTCHAR 0124
ENCODING 292
SWIDTH 840 0
DWIDTH 14 0
BBX 11 15 1 0
BITMAP
0400
1B00
0000
E0E0
4040
4040
4040
4040
7FC0
4040
4040
4040
4040
4040
E0E0
ENDCHAR
STARTCHAR 0125
ENCODING 293
SWIDTH 660 0
DWIDTH 11 0
BBX 9 16 1 0
BITMAP
0800
3600
0000
4000
C000
4000
4000
4000
5E00
6100
4100
4100
4100
4100
4100
E380
ENDCHAR
STARTCHAR 0126
ENCODING 294
SWIDTH 840 0
DWIDTH 14 0
BBX 11 12 1 0
BITMAP
E0E0
4040
FFE0
4040
4040
7FC0
4040
4040
4040
4040
4040
E0E0
ENDCHAR
STARTCHAR 0127
ENCODING 295
SWIDTH 660 0
DWIDTH 11 0
BBX 9 13 1 0
BITMAP
4000
C000
4000
F800
4000
5E00
6100
4100
4100
4100
4100
4100
E780
ENDCHAR
STARTCHAR 0128
ENCODING 296
SWIDTH 360 0
DWIDTH 6 0
BBX 5 15 0 0
BITMAP
C8
B0
00
70
20
20
20
20
20
20
20
20
20
20
70
ENDCHAR
STARTCHAR 0129
ENCODING 297
SWIDTH 300 0
DWIDTH 5 0
BBX 5 12 0 0
BITMAP
C8
B0
00
00
20
60
20
20
20
20
20
70
ENDCHAR
STARTCHAR 012A
ENCODING 298
SWIDTH 360 0
DWIDTH 6 0
BBX 5 14 0 0
BITMAP
F8
00
70
20
20
20
20
20
20
20
20
20
20
70
ENDCHAR
STARTCHAR 012B
ENCODING 299
SWIDTH 300 0
DWIDTH 5 0
BBX 5 11 0 0
BITMAP
F8
00
00
20
60
20
20
20
20
20
70
ENDCHAR
STARTCHAR 012C
ENCODING 300
SWIDTH 360 0
DWIDTH 6 0
BBX 6 15 -1 0
BITMAP
84
78
00
38
10
10
10
10
10
10
10
10
10
10
38
ENDCHAR
STARTCHAR 012D
ENCODING 301
SWIDTH 300 0
DWIDTH 5 0
BBX 6 12 0 0
BITMAP
84
78
00
00
20
60
20
20
20
20
20
70
ENDCHAR
STARTCHAR 012E
ENCODING 302
SWIDTH 360 0
DWIDTH 6 0
BBX 3 15 1 -3
BITMAP
E0
40
40
40
40
40
40
40
40
40
40
E0
40
80
C0
ENDCHAR
STARTCHAR 012F
ENCODING 303
SWIDTH 300 0
DWIDTH 5 0
BBX 3 16 1 -3
BITMAP
40
40
00
00
00
40
C0
40
40
40
40
40
E0
40
80
C0
ENDCHAR
STARTCHAR 0130
ENCODING 304
SWIDTH 360 0
DWIDTH 6 0
BBX 3 15 1 0
BITMAP
40
40
00
E0
40
40
40
40
40
40
40
40
40
40
E0
ENDCHAR
STARTCHAR 0131
ENCODING 305
SWIDTH 300 0
DWIDTH 5 0
BBX 3 8 1 0
BITMAP
40
C0
40
40
40
40
40
E0
ENDCHAR
STARTCHAR 0132
ENCODING 306
SWIDTH 960 0
DWIDTH 16 0
BBX 12 12 2 0
BITMAP
E070
4020
4020
4020
4020
4020
4020
4020
4820
4820
4440
E380
ENDCHAR
STARTCHAR 0133
ENCODING 307
SWIDTH 600 0
DWIDTH 10 0
BBX 7 17 1 -4
BITMAP
42
42
00
00
00
42
C6
42
42
42
42
42
E2
02
02
32
1C
ENDCHAR
STARTCHAR 0134
ENCODING 308
SWIDTH 600 0
DWIDTH 10 0
BBX 10 15 0 0
BITMAP
0100
06C0
0000
0380
0100
0100
0100
0100
0100
0100
0100
8100
8100
4200
3C00
ENDCHAR
STARTCHAR 0135
ENCODING 309
SWIDTH 300 0
DWIDTH 5 0
BBX 6 16 -2 -4
BITMAP
10
6C
00
00
08
18
08
08
08
08
08
08
08
08
C8
F0
ENDCHAR
STARTCHAR 0136
ENCODING 310
SWIDTH 720 0
DWIDTH 12 0
BBX 10 16 2 -4
BITMAP
E3C0
4100
4200
4400
4800
5800
6800
4400
4200
4100
4100
E3C0
0000
1C00
0400
1C00
ENDCHAR
STARTCHAR 0137
ENCODING 311
SWIDTH 660 0
DWIDTH 11 0
BBX 10 17 1 -4
BITMAP
4000
C000
4000
4000
4000
4780
4200
4C00
5800
6400
4200
4100
E3C0
0000
1C00
0400
1C00
ENDCHAR
STARTCHAR 0138
ENCODING 312
SWIDTH 660 0
DWIDTH 11 0
BBX 10 8 1 0
BITMAP
4780
C200
4C00
5000
6C00
4200
4100
E3C0
ENDCHAR
STARTCHAR 0139
ENCODING 313
SWIDTH 600 0
DWIDTH 10 0
BBX 8 15 2 0
BITMAP
60
C0
00
E0
40
40
40
40
40
40
40
41
41
42
FE
ENDCHAR
STARTCHAR 013A
ENCODING 314
SWIDTH 300 0
DWIDTH 5 0
BBX 3 16 1 0
BITMAP
60
C0
00
40
C0
40
40
40
40
40
40
40
40
40
40
E0
ENDCHAR
STARTCHAR 013B
ENCODING 315
SWIDTH 600 0
DWIDTH 10 0
BBX 8 16 2 -4
BITMAP
E0
40
40
40
40
40
40
40
41
41
42
FE
00
38
08
38
ENDCHAR
STARTCHAR 013C
ENCODING 316
SWIDTH 300 0
DWIDTH 5 0
BBX 3 17 1 -4
BITMAP
40
C0
40
40
40
40
40
40
40
40
40
40
E0
00
E0
20
E0
ENDCHAR
STARTCHAR 013D
ENCODING 317
SWIDTH 600 0
DWIDTH 10 0
BBX 8 12 2 0
BITMAP
E6
42
42
44
40
40
40
40
41
41
42
FE
ENDCHAR
STARTCHAR 013E
ENCODING 318
SWIDTH 360 0
DWIDTH 6 0
BBX 5 13 1 0
BITMAP
58
C8
48
50
40
40
40
40
40
40
40
40
E0
ENDCHAR
STARTCHAR 013F
ENCODING 319
SWIDTH 600 0
DWIDTH 10 0
BBX 8 12 2 0
BITMAP
E0
40
40
40
40
50
50
40
41
41
42
FE
ENDCHAR
STARTCHAR 0140
ENCODING 320
SWIDTH 360 0
DWIDTH 6 0
BBX 4 13 1 0
BITMAP
40
C0
40
40
40
40
50
50
40
40
40
40
E0
ENDCHAR
STARTCHAR 0141
ENCODING 321
SWIDTH 600 0
DWIDTH 10 0
BBX 9 12 2 0
BITMAP
E000
4000
4000
4800
5000
6000
4000
C000
4180
4180
4300
FF00
ENDCHAR
STARTCHAR 0142
ENCODING 322
SWIDTH 300 0
DWIDTH 5 0
BBX 3 13 1 0
BITMAP
40
C0
40
40
40
60
40
C0
C0
40
40
40
E0
ENDCHAR
STARTCHAR 0143
ENCODING 323
SWIDTH 780 0
DWIDTH 13 0
BBX 10 15 1 0
BITMAP
0600
0C00
0000
E1C0
6080
5080
5080
4880
4880
4480
4280
4280
4180
4180
E080
ENDCHAR
STARTCHAR 0144
ENCODING 324
SWIDTH 660 0
DWIDTH 11 0
BBX 9 12 1 0
BITMAP
0C00
1800
0000
0000
5E00
E100
4100
4100
4100
4100
4100
E380
ENDCHAR
STARTCHAR 0145
ENCODING 325
SWIDTH 780 0
DWIDTH 13 0
BBX 10 16 1 -4
BITMAP
E1C0
6080
5080
5080
4880
4880
4480
4280
4280
4180
4180
E080
0000
1C00
0400
1C00
ENDCHAR
STARTCHAR 0146
ENCODING 326
SWIDTH 660 0
DWIDTH 11 0
BBX 9 12 1 -4
BITMAP
5E00
E100
4100
4100
4100
4100
4100
E380
0000
1C00
0400
1C00
ENDCHAR
STARTCHAR 0147
ENCODING 327
SWIDTH 780 0
DWIDTH 13 0
BBX 10 15 1 0
BITMAP
1B00
0400
0000
E1C0
6080
5080
5080
4880
4880
4480
4280
4280
4180
4180
E080
ENDCHAR
STARTCHAR 0148
ENCODING 328
SWIDTH 660 0
DWIDTH 11 0
BBX 9 12 1 0
BITMAP
3600
0800
0000
0000
5E00
E100
4100
4100
4100
4100
4100
E380
ENDCHAR
STARTCHAR 0149
ENCODING 329
SWIDTH 780 0
DWIDTH 13 0
BBX 12 12 0 0
BITMAP
6000
6000
2000
4000
8BC0
1C20
0820
0820
0820
0820
0820
1C70
ENDCHAR
STARTCHAR 014A
ENCODING 330
SWIDTH 840 0
DWIDTH 14 0
BBX 12 12 1 0
BITMAP
CF80
5040
6020
4010
4010
4010
4010
4010
4C10
4820
4840
E780
ENDCHAR
STARTCHAR 014B
ENCODING 331
SWIDTH 660 0
DWIDTH 11 0
BBX 8 12 1 -4
BITMAP
5E
E1
41
41
41
41
41
E1
01
01
11
1E
ENDCHAR
STARTCHAR 014C
ENCODING 332
SWIDTH 840 0
DWIDTH 14 0
BBX 12 14 1 0
BITMAP
0F80
0000
1F80
2040
4020
8010
8010
8010
8010
8010
8010
4020
2040
1F80
ENDCHAR
STARTCHAR 014D
ENCODING 333
SWIDTH 600 0
DWIDTH 10 0
BBX 8 11 1 0
BITMAP
3E
00
00
3C
42
81
81
81
81
42
3C
ENDCHAR
STARTCHAR 014E
ENCODING 334
SWIDTH 840 0
DWIDTH 14 0
BBX 12 15 1 0
BITMAP
1080
0F00
0000
1F80
2040
4020
8010
8010
8010
8010
8010
8010
4020
2040
1F80
ENDCHAR
STARTCHAR 014F
ENCODING 335
SWIDTH 600 0
DWIDTH 10 0
BBX 8 12 1 0
BITMAP
42
3C
00
00
3C
42
81
81
81
81
42
3C
ENDCHAR
STARTCHAR 0150
ENCODING 336
SWIDTH 840 0
DWIDTH 14 0
BBX 12 16 1 0
BITMAP
0280
0500
0500
0000
1F80
2040
4020
8010
8010
8010
8010
8010
8010
4020
2040
1F80
ENDCHAR
STARTCHAR 0151
ENCODING 337
SWIDTH 600 0
DWIDTH 10 0
BBX 8 12 1 0
BITMAP
0A
14
14
00
3C
42
81
81
81
81
42
3C
ENDCHAR
STARTCHAR 0152
ENCODING 338
SWIDTH 1260 0
DWIDTH 21 0
BBX 20 12 1 0
BITMAP
1F3FC0
20A060
406020
802100
802100
803F00
802100
802100
802010
406030
20A060
1F3FE0
ENDCHAR
STARTCHAR 0153
ENCODING 339
SWIDTH 900 0
DWIDTH 15 0
BBX 13 8 1 0
BITMAP
38E0
4510
8208
83F8
8200
8208
4518
38E0
ENDCHAR
STARTCHAR 0154
ENCODING 340
SWIDTH 720 0
DWIDTH 12 0
BBX 9 15 2 0
BITMAP
0C00
1800
0000
FE00
4100
4080
4080
4100
7E00
4800
4400
4400
4200
4100
E080
ENDCHAR
STARTCHAR 0155
ENCODING 341
SWIDTH 420 0
DWIDTH 7 0
BBX 6 12 1 0
BITMAP
18
30
00
00
5C
E4
40
40
40
40
40
E0
ENDCHAR
STARTCHAR 0156
ENCODING 342
SWIDTH 720 0
DWIDTH 12 0
BBX 9 16 2 -4
BITMAP
FE00
4100
4080
4080
4100
7E00
4800
4400
4400
4200
4100
E080
0000
1C00
0400
1C00
ENDCHAR
STARTCHAR 0157
ENCODING 343
SWIDTH 420 0
DWIDTH 7 0
BBX 6 12 1 -4
BITMAP
5C
E4
40
40
40
40
40
E0
00
70
10
70
ENDCHAR
STARTCHAR 0158
ENCODING 344
SWIDTH 720 0
DWIDTH 12 0
BBX 9 15 2 0
BITMAP
3600
0800
0000
FE00
4100
4080
4080
4100
7E00
4800
4400
4400
4200
4100
E080
ENDCHAR
STARTCHAR 0159
ENCODING 345
SWIDTH 420 0
DWIDTH 7 0
BBX 6 12 1 0
BITMAP
6C
10
00
00
5C
E4
40
40
40
40
40
E0
ENDCHAR
STARTCHAR 015A
ENCODING 346
SWIDTH 660 0
DWIDTH 11 0
BBX 9 15 1 0
BITMAP
0C00
1800
0000
3D00
4300
8180
8080
C000
3800
0600
0180
8080
C080
6100
5E00
ENDCHAR
STARTCHAR 015B
ENCODING 347
SWIDTH 540 0
DWIDTH 9 0
BBX 7 12 1 0
BITMAP
18
30
00
00
74
8E
82
70
1C
82
E2
5C
ENDCHAR
STARTCHAR 015C
ENCODING 348
SWIDTH 660 0
DWIDTH 11 0
BBX 9 15 1 0
BITMAP
0800
3600
0000
3D00
4300
8180
8080
C000
3800
0600
0180
8080
C080
6100
5E00
ENDCHAR
STARTCHAR 015D
ENCODING 349
SWIDTH 540 0
DWIDTH 9 0
BBX 7 12 1 0
BITMAP
10
6C
00
00
74
8E
82
70
1C
82
E2
5C
ENDCHAR
STARTCHAR 015E
ENCODING 350
SWIDTH 660 0
DWIDTH 11 0
BBX 9 16 1 -4
BITMAP
3D00
4300
8180
8080
C000
3800
0600
0180
8080
C080
6100
5E00
0400
0E00
0200
1E00
ENDCHAR
STARTCHAR 015F
ENCODING 351
SWIDTH 540 0
DWIDTH 9 0
BBX 7 12 1 -4
BITMAP
74
8E
82
70
1C
82
E2
5C
08
1C
04
3C
ENDCHAR
STARTCHAR 0160
ENCODING 352
SWIDTH 660 0
DWIDTH 11 0
BBX 9 15 1 0
BITMAP
3600
0800
0000
3D00
4300
8180
8080
C000
3800
0600
0180
8080
C080
6100
5E00
ENDCHAR
STARTCHAR 0161
ENCODING 353
SWIDTH 540 0
DWIDTH 9 0
BBX 7 12 1 0
BITMAP
6C
10
00
00
74
8E
82
70
1C
82
E2
5C
ENDCHAR
STARTCHAR 0162
ENCODING 354
SWIDTH 660 0
DWIDTH 11 0
BBX 11 15 0 -3
BITMAP
7FC0
C440
8420
0400
0400
0400
0400
0400
0400
0400
0400
0E00
0000
0C00
0400
ENDCHAR
STARTCHAR 0163
ENCODING 355
SWIDTH 360 0
DWIDTH 6 0
BBX 4 15 1 -4
BITMAP
40
40
40
F0
40
40
40
40
40
40
70
00
60
20
40
ENDCHAR
STARTCHAR 0164
ENCODING 356
SWIDTH 660 0
DWIDTH 11 0
BBX 11 15 0 0
BITMAP
1B00
0400
0000
7FC0
C440
8420
0400
0400
0400
0400
0400
0400
0400
0400
0E00
ENDCHAR
STARTCHAR 0165
ENCODING 357
SWIDTH 360 0
DWIDTH 6 0
BBX 5 13 1 0
BITMAP
18
08
48
50
40
F0
40
40
40
40
40
40
70
ENDCHAR
STARTCHAR 0166
ENCODING 358
SWIDTH 660 0
DWIDTH 11 0
BBX 11 12 0 0
BITMAP
7FC0
C440
8420
0400
0400
3F80
0400
0400
0400
0400
0400
1F00
ENDCHAR
STARTCHAR 0167
ENCODING 359
SWIDTH 360 0
DWIDTH 6 0
BBX 4 11 1 0
BITMAP
40
40
C0
F0
40
40
F0
40
40
40
70
ENDCHAR
STARTCHAR 0168
ENCODING 360
SWIDTH 780 0
DWIDTH 13 0
BBX 11 15 1 0
BITMAP
1900
1600
0000
E0E0
4040
4040
4040
4040
4040
4040
4040
4040
4040
2080
1F00
ENDCHAR
STARTCHAR 0169
ENCODING 361
SWIDTH 720 0
DWIDTH 12 0
BBX 9 12 1 0
BITMAP
3200
2C00
0000
0000
C300
4100
4100
4100
4100
4100
4300
3D80
ENDCHAR
STARTCHAR 016A
ENCODING 362
SWIDTH 780 0
DWIDTH 13 0
BBX 11 14 1 0
BITMAP
1F00
0000
E0E0
4040
4040
4040
4040
4040
4040
4040
4040
4040
2080
1F00
ENDCHAR
STARTCHAR 016B
ENCODING 363
SWIDTH 720 0
DWIDTH 12 0
BBX 9 11 1 0
BITMAP
3E00
0000
0000
C300
4100
4100
4100
4100
4100
4300
3D80
ENDCHAR
STARTCHAR 016C
ENCODING 364
SWIDTH 780 0
DWIDTH 13 0
BBX 11 15 1 0
BITMAP
2100
1E00
0000
E0E0
4040
4040
4040
4040
4040
4040
4040
4040
4040
2080
1F00
ENDCHAR
STARTCHAR 016D
ENCODING 365
SWIDTH 720 0
DWIDTH 12 0
BBX 9 12 1 0
BITMAP
4200
3C00
0000
0000
C300
4100
4100
4100
4100
4100
4300
3D80
ENDCHAR
STARTCHAR 016E
ENCODING 366
SWIDTH 780 0
DWIDTH 13 0
BBX 11 17 1 0
BITMAP
0C00
1200
1200
0C00
0000
E0E0
4040
4040
4040
4040
4040
4040
4040
4040
4040
2080
1F00
ENDCHAR
STARTCHAR 016F
ENCODING 367
SWIDTH 720 0
DWIDTH 12 0
BBX 9 14 1 0
BITMAP
1800
2400
2400
1800
0000
0000
C300
4100
4100
4100
4100
4100
4300
3D80
ENDCHAR
STARTCHAR 0170
ENCODING 368
SWIDTH 780 0
DWIDTH 13 0
BBX 11 16 1 0
BITMAP
0500
0A00
0A00
0000
E0E0
4040
4040
4040
4040
4040
4040
4040
4040
4040
2080
1F00
ENDCHAR
STARTCHAR 0171
ENCODING 369
SWIDTH 720 0
DWIDTH 12 0
BBX 9 12 1 0
BITMAP
0A00
1400
1400
0000
C300
4100
4100
4100
4100
4100
4300
3D80
ENDCHAR
STARTCHAR 0172
ENCODING 370
SWIDTH 780 0
DWIDTH 13 0
BBX 11 15 1 -3
BITMAP
E0E0
4040
4040
4040
4040
4040
4040
4040
4040
4040
2080
1F00
0400
0800
0C00
ENDCHAR
STARTCHAR 0173
ENCODING 371
SWIDTH 720 0
DWIDTH 12 0
BBX 9 11 1 -3
BITMAP
C300
4100
4100
4100
4100
4100
4300
3D80
0100
0200
0300
ENDCHAR
STARTCHAR 0174
ENCODING 372
SWIDTH 960 0
DWIDTH 16 0
BBX 15 15 1 0
BITMAP
0100
06C0
0000
E38E
4104
4104
2108
2288
2288
2290
14D0
1450
1450
1860
0820
ENDCHAR
STARTCHAR 0175
ENCODING 373
SWIDTH 780 0
DWIDTH 13 0
BBX 13 12 0 0
BITMAP
0200
0D80
0000
0000
F7B8
2110
2310
2310
14A0
14A0
14A0
0840
ENDCHAR
STARTCHAR 0176
ENCODING 374
SWIDTH 660 0
DWIDTH 11 0
BBX 9 15 0 0
BITMAP
0800
3600
0000
F380
2100
2100
1200
1400
1400
0800
0800
0800
0800
0800
1C00
ENDCHAR
STARTCHAR 0177
ENCODING 375
SWIDTH 540 0
DWIDTH 9 0
BBX 9 16 0 -4
BITMAP
0800
3600
0000
0000
E380
4100
2200
2200
1200
1400
1400
0800
0800
0800
9000
E000
ENDCHAR
STARTCHAR 0178
ENCODING 376
SWIDTH 660 0
DWIDTH 11 0
BBX 9 15 0 0
BITMAP
1400
1400
0000
F380
2100
2100
1200
1400
1400
0800
0800
0800
0800
0800
1C00
ENDCHAR
STARTCHAR 0179
ENCODING 377
SWIDTH 660 0
DWIDTH 11 0
BBX 11 15 0 0
BITMAP
0300
0600
0000
7FC0
C080
8080
0100
0200
0400
0800
1000
2020
4020
4040
FFC0
ENDCHAR
STARTCHAR 017A
ENCODING 378
SWIDTH 480 0
DWIDTH 8 0
BBX 8 12 0 0
BITMAP
0C
18
00
00
7F
C2
84
08
10
21
43
FE
ENDCHAR
STARTCHAR 017B
ENCODING 379
SWIDTH 660 0
DWIDTH 11 0
BBX 11 15 0 0
BITMAP
0400
0400
0000
7FC0
C080
8080
0100
0200
0400
0800
1000
2020
4020
4040
FFC0
ENDCHAR
STARTCHAR 017C
ENCODING 380
SWIDTH 480 0
DWIDTH 8 0
BBX 8 12 0 0
BITMAP
08
08
00
00
7F
C2
84
08
10
21
43
FE
ENDCHAR
STARTCHAR 017D
ENCODING 381
SWIDTH 660 0
DWIDTH 11 0
BBX 11 15 0 0
BITMAP
1B00
0400
0000
7FC0
C080
8080
0100
0200
0400
0800
1000
2020
4020
4040
FFC0
ENDCHAR
STARTCHAR 017E
ENCODING 382
SWIDTH 480 0
DWIDTH 8 0
BBX 8 12 0 0
BITMAP
36
08
00
00
7F
C2
84
08
10
21
43
FE
ENDCHAR
STARTCHAR 017F
ENCODING 383
SWIDTH 300 0
DWIDTH 5 0
BBX 6 13 1 0
BITMAP
3C
44
40
40
40
40
40
40
40
40
40
40
E0
ENDCHAR
STARTCHAR 0192
ENCODING 402
SWIDTH 660 0
DWIDTH 11 0
BBX 12 16 -1 -3
BITMAP
00F0
0130
0200
0200
0200
0F80
0400
0400
0400
0400
0800
0800
0800
1000
D000
E000
ENDCHAR
STARTCHAR 01FA
ENCODING 506
SWIDTH 720 0
DWIDTH 12 0
BBX 11 18 0 0
BITMAP
0600
0C00
0000
0600
0900
0900
0600
0A00
0A00
0A00
1100
1100
1F00
2080
2080
2040
4040
E0E0
ENDCHAR
STARTCHAR 01FB
ENCODING 507
SWIDTH 600 0
DWIDTH 10 0
BBX 9 17 1 0
BITMAP
0C00
1800
0000
3000
4800
4800
3000
0000
0000
7C00
8200
8200
1E00
6200
8200
8600
7B80
ENDCHAR
STARTCHAR 01FC
ENCODING 508
SWIDTH 1260 0
DWIDTH 21 0
BBX 20 15 0 0
BITMAP
001800
003000
000000
03FFC0
011060
011020
021100
021100
07FF00
081100
081100
101010
101030
201060
F03FE0
ENDCHAR
STARTCHAR 01FD
ENCODING 509
SWIDTH 900 0
DWIDTH 15 0
BBX 13 12 1 0
BITMAP
0300
0600
0000
0000
7CE0
C310
C208
1FF8
6200
8208
8518
78E0
ENDCHAR
STARTCHAR 01FE
ENCODING 510
SWIDTH 840 0
DWIDTH 14 0
BBX 12 15 1 0
BITMAP
0300
0600
0000
1F10
20E0
4060
80A0
8110
8210
8410
8810
D010
6020
6040
9F80
ENDCHAR
STARTCHAR 01FF
ENCODING 511
SWIDTH 600 0
DWIDTH 10 0
BBX 8 12 1 0
BITMAP
0C
18
00
00
3D
42
85
89
91
A1
42
BC
ENDCHAR
STARTCHAR 02C6
ENCODING 710
SWIDTH 420 0
DWIDTH 7 0
BBX 5 2 1 10
BITMAP
20
D8
ENDCHAR
STARTCHAR 02C7
ENCODING 711
SWIDTH 420 0
DWIDTH 7 0
BBX 5 2 1 10
BITMAP
D8
20
ENDCHAR
STARTCHAR 02C9
ENCODING 713
SWIDTH 420 0
DWIDTH 7 0
BBX 5 1 1 10
BITMAP
F8
ENDCHAR
STARTCHAR 02D8
ENCODING 728
SWIDTH 480 0
DWIDTH 8 0
BBX 6 2 1 10
BITMAP
84
78
ENDCHAR
STARTCHAR 02D9
ENCODING 729
SWIDTH 240 0
DWIDTH 4 0
BBX 1 2 1 10
BITMAP
80
80
ENDCHAR
STARTCHAR 02DA
ENCODING 730
SWIDTH 300 0
DWIDTH 5 0
BBX 4 4 1 9
BITMAP
60
90
90
60
ENDCHAR
STARTCHAR 02DB
ENCODING 731
SWIDTH 300 0
DWIDTH 5 0
BBX 2 3 1 -3
BITMAP
40
80
C0
ENDCHAR
STARTCHAR 02DC
ENCODING 732
SWIDTH 420 0
DWIDTH 7 0
BBX 5 2 1 10
BITMAP
C8
B0
ENDCHAR
STARTCHAR 02DD
ENCODING 733
SWIDTH 360 0
DWIDTH 6 0
BBX 4 3 2 9
BITMAP
50
A0
A0
ENDCHAR
STARTCHAR 037E
ENCODING 894
SWIDTH 300 0
DWIDTH 5 0
BBX 3 11 1 -3
BITMAP
40
40
00
00
00
00
60
60
20
40
80
ENDCHAR
STARTCHAR 0384
ENCODING 900
SWIDTH 420 0
DWIDTH 7 0
BBX 1 3 3 9
BITMAP
80
80
80
ENDCHAR
STARTCHAR 0385
ENCODING 901
SWIDTH 420 0
DWIDTH 7 0
BBX 5 3 1 9
BITMAP
20
A8
A8
ENDCHAR
STARTCHAR 0386
ENCODING 902
SWIDTH 720 0
DWIDTH 12 0
BBX 11 12 0 0
BITMAP
4400
4A00
4A00
0A00
1100
1100
1F00
2080
2080
2040
4040
E0E0
ENDCHAR
STARTCHAR 0387
ENCODING 903
SWIDTH 360 0
DWIDTH 6 0
BBX 2 2 2 6
BITMAP
C0
C0
ENDCHAR
STARTCHAR 0388
ENCODING 904
SWIDTH 780 0
DWIDTH 13 0
BBX 12 12 0 0
BITMAP
9FE0
8820
8810
0880
0880
0F80
0880
0880
0810
0810
0820
1FE0
ENDCHAR
STARTCHAR 0389
ENCODING 905
SWIDTH 900 0
DWIDTH 15 0
BBX 13 12 0 0
BITMAP
B838
9010
9010
1010
1010
1FF0
1010
1010
1010
1010
1010
3838
ENDCHAR
STARTCHAR 038A
ENCODING 906
SWIDTH 420 0
DWIDTH 7 0
BBX 5 12 0 0
BITMAP
B8
90
90
10
10
10
10
10
10
10
10
38
ENDCHAR
STARTCHAR 038C
ENCODING 908
SWIDTH 840 0
DWIDTH 14 0
BBX 13 12 0 0
BITMAP
8FC0
9020
A010
4008
4008
4008
4008
4008
4008
2010
1020
0FC0
ENDCHAR
STARTCHAR 038E
ENCODING 910
SWIDTH 780 0
DWIDTH 13 0
BBX 11 12 0 0
BITMAP
BCE0
8840
8840
0480
0500
0500
0200
0200
0200
0200
0200
0700
ENDCHAR
STARTCHAR 038F
ENCODING 911
SWIDTH 780 0
DWIDTH 13 0
BBX 13 12 0 0
BITMAP
8F80
B060
A020
4010
4010
4010
4010
2020
3060
8D88
C518
7DF0
ENDCHAR
STARTCHAR 0390
ENCODING 912
SWIDTH 300 0
DWIDTH 5 0
BBX 5 13 0 0
BITMAP
20
A8
A8
00
00
20
60
20
20
20
20
20
18
ENDCHAR
STARTCHAR 0391
ENCODING 913
SWIDTH 720 0
DWIDTH 12 0
BBX 11 12 0 0
BITMAP
0400
0A00
0A00
0A00
1100
1100
1F00
2080
2080
2040
4040
E0E0
ENDCHAR
STARTCHAR 0392
ENCODING 914
SWIDTH 780 0
DWIDTH 13 0
BBX 11 12 1 0
BITMAP
FF80
4040
4020
4020
4040
7F80
4040
4020
4020
4020
4040
FF80
ENDCHAR
STARTCHAR 0393
ENCODING 915
SWIDTH 600 0
DWIDTH 10 0
BBX 10 12 0 0
BITMAP
FF80
20C0
2040
2000
2000
2000
2000
2000
2000
2000
2000
F800
ENDCHAR
STARTCHAR 0394
ENCODING 916
SWIDTH 600 0
DWIDTH 10 0
BBX 10 12 0 0
BITMAP
0C00
0C00
1200
1200
1200
2100
2100
4080
4080
4080
8040
FFC0
ENDCHAR
STARTCHAR 0395
ENCODING 917
SWIDTH 660 0
DWIDTH 11 0
BBX 9 12 2 0
BITMAP
FF00
4100
4080
4400
4400
7C00
4400
4400
4080
4080
4100
FF00
ENDCHAR
STARTCHAR 0396
ENCODING 918
SWIDTH 660 0
DWIDTH 11 0
BBX 11 12 0 0
BITMAP
7FC0
C080
8080
0100
0200
0400
0800
1000
2020
4020
4040
FFC0
ENDCHAR
STARTCHAR 0397
ENCODING 919
SWIDTH 840 0
DWIDTH 14 0
BBX 11 12 1 0
BITMAP
E0E0
4040
4040
4040
4040
7FC0
4040
4040
4040
4040
4040
E0E0
ENDCHAR
STARTCHAR 0398
ENCODING 920
SWIDTH 840 0
DWIDTH 14 0
BBX 12 12 1 0
BITMAP
1F80
2040
4020
9090
9090
9F90
9090
9090
8010
4020
2040
1F80
ENDCHAR
STARTCHAR 0399
ENCODING 921
SWIDTH 360 0
DWIDTH 6 0
BBX 3 12 1 0
BITMAP
E0
40
40
40
40
40
40
40
40
40
40
E0
ENDCHAR
STARTCHAR 039A
ENCODING 922
SWIDTH 720 0
DWIDTH 12 0
BBX 10 12 2 0
BITMAP
E3C0
4100
4200
4400
4800
5800
6800
4400
4200
4100
4100
E3C0
ENDCHAR
STARTCHAR 039B
ENCODING 923
SWIDTH 720 0
DWIDTH 12 0
BBX 11 12 0 0
BITMAP
0400
0A00
0A00
0A00
1100
1100
2100
2080
2080
4040
4040
E1E0
ENDCHAR
STARTCHAR 039C
ENCODING 924
SWIDTH 960 0
DWIDTH 16 0
BBX 13 12 2 0
BITMAP
E038
6030
7030
5050
5050
4890
4890
4890
4510
4510
4710
E238
ENDCHAR
STARTCHAR 039D
ENCODING 925
SWIDTH 780 0
DWIDTH 13 0
BBX 10 12 1 0
BITMAP
E1C0
6080
5080
5080
4880
4880
4480
4280
4280
4180
4180
E080
ENDCHAR
STARTCHAR 039E
ENCODING 926
SWIDTH 720 0
DWIDTH 12 0
BBX 12 12 0 0
BITMAP
3FC0
6060
4020
0000
1080
1F80
1080
0000
0000
8010
E070
7FE0
ENDCHAR
STARTCHAR 039F
ENCODING 927
SWIDTH 840 0
DWIDTH 14 0
BBX 12 12 1 0
BITMAP
1F80
2040
4020
8010
8010
8010
8010
8010
8010
4020
2040
1F80
ENDCHAR
STARTCHAR 03A0
ENCODING 928
SWIDTH 780 0
DWIDTH 13 0
BBX 12 12 0 0
BITMAP
FFF0
2040
2040
2040
2040
2040
2040
2040
2040
2040
2040
F9F0
ENDCHAR
STARTCHAR 03A1
ENCODING 929
SWIDTH 660 0
DWIDTH 11 0
BBX 10 12 1 0
BITMAP
FF00
4080
4040
4040
4040
4080
7F00
4000
4000
4000
4000
E000
ENDCHAR
STARTCHAR 03A3
ENCODING 931
SWIDTH 660 0
DWIDTH 11 0
BBX 10 12 1 0
BITMAP
FF00
4180
4080
2000
1000
0800
1000
1000
2000
4040
40C0
FF80
ENDCHAR
STARTCHAR 03A4
ENCODING 932
SWIDTH 660 0
DWIDTH 11 0
BBX 11 12 0 0
BITMAP
7FC0
C440
8420
0400
0400
0400
0400
0400
0400
0400
0400
0E00
ENDCHAR
STARTCHAR 03A5
ENCODING 933
SWIDTH 660 0
DWIDTH 11 0
BBX 9 12 0 0
BITMAP
F380
2100
2100
1200
1400
1400
0800
0800
0800
0800
0800
1C00
ENDCHAR
STARTCHAR 03A6
ENCODING 934
SWIDTH 840 0
DWIDTH 14 0
BBX 13 12 0 0
BITMAP
0700
0200
3FE0
6210
8208
8208
8208
8208
6210
3FE0
0200
0700
ENDCHAR
STARTCHAR 03A7
ENCODING 935
SWIDTH 720 0
DWIDTH 12 0
BBX 11 12 0 0
BITMAP
F0E0
2040
1080
0900
0A00
0600
0600
0A00
1100
2080
2040
F0E0
ENDCHAR
STARTCHAR 03A8
ENCODING 936
SWIDTH 900 0
DWIDTH 15 0
BBX 13 12 1 0
BITMAP
C718
4210
4210
4210
4210
4210
2220
1FC0
0200
0200
0200
0700
ENDCHAR
STARTCHAR 03A9
ENCODING 937
SWIDTH 780 0
DWIDTH 13 0
BBX 13 12 0 0
BITMAP
0F80
3060
2020
4010
4010
4010
4010
2020
3060
8D88
C518
7DF0
ENDCHAR
STARTCHAR 03AA
ENCODING 938
SWIDTH 360 0
DWIDTH 6 0
BBX 3 15 1 0
BITMAP
A0
A0
00
E0
40
40
40
40
40
40
40
40
40
40
E0
ENDCHAR
STARTCHAR 03AB
ENCODING 939
SWIDTH 660 0
DWIDTH 11 0
BBX 9 15 0 0
BITMAP
1400
1400
0000
F380
2100
2100
1200
1400
1400
0800
0800
0800
0800
0800
1C00
ENDCHAR
STARTCHAR 03AC
ENCODING 940
SWIDTH 660 0
DWIDTH 11 0
BBX 9 13 1 0
BITMAP
1000
1000
1000
0000
0000
3D00
4300
8100
8100
8100
8100
4300
3D80
ENDCHAR
STARTCHAR 03AD
ENCODING 941
SWIDTH 480 0
DWIDTH 8 0
BBX 7 13 1 0
BITMAP
10
10
10
00
00
78
84
80
70
80
82
84
78
ENDCHAR
STARTCHAR 03AE
ENCODING 942
SWIDTH 660 0
DWIDTH 11 0
BBX 8 17 1 -4
BITMAP
08
08
08
00
00
4E
F1
41
41
41
41
41
E1
01
01
01
01
ENDCHAR
STARTCHAR 03AF
ENCODING 943
SWIDTH 300 0
DWIDTH 5 0
BBX 4 13 1 0
BITMAP
40
40
40
00
00
40
C0
40
40
40
40
40
30
ENDCHAR
STARTCHAR 03B0
ENCODING 944
SWIDTH 600 0
DWIDTH 10 0
BBX 9 13 0 0
BITMAP
0400
1500
1500
0000
0000
E380
2080
2080
2080
2080
2080
2080
1F00
ENDCHAR
STARTCHAR 03B1
ENCODING 945
SWIDTH 660 0
DWIDTH 11 0
BBX 9 8 1 0
BITMAP
3D00
4300
8100
8100
8100
8100
4300
3D80
ENDCHAR
STARTCHAR 03B2
ENCODING 946
SWIDTH 600 0
DWIDTH 10 0
BBX 8 17 1 -4
BITMAP
38
44
82
82
82
84
9C
82
81
81
81
C2
BC
80
80
80
80
ENDCHAR
STARTCHAR 03B3
ENCODING 947
SWIDTH 540 0
DWIDTH 9 0
BBX 9 12 0 -4
BITMAP
C180
4080
2080
2100
1100
1200
0C00
0C00
0800
0800
0800
0800
ENDCHAR
STARTCHAR 03B4
ENCODING 948
SWIDTH 600 0
DWIDTH 10 0
BBX 8 13 1 0
BITMAP
3C
22
40
40
20
1C
62
81
81
81
81
42
3C
ENDCHAR
STARTCHAR 03B5
ENCODING 949
SWIDTH 480 0
DWIDTH 8 0
BBX 7 8 1 0
BITMAP
78
84
80
70
80
82
84
78
ENDCHAR
STARTCHAR 03B6
ENCODING 950
SWIDTH 360 0
DWIDTH 6 0
BBX 7 17 0 -4
BITMAP
FE
08
10
20
40
40
80
80
80
80
60
18
04
02
02
44
78
ENDCHAR
STARTCHAR 03B7
ENCODING 951
SWIDTH 660 0
DWIDTH 11 0
BBX 8 12 1 -4
BITMAP
4E
F1
41
41
41
41
41
E1
01
01
01
01
ENDCHAR
STARTCHAR 03B8
ENCODING 952
SWIDTH 600 0
DWIDTH 10 0
BBX 8 13 1 0
BITMAP
3C
42
42
81
81
81
FF
81
81
81
42
42
3C
ENDCHAR
STARTCHAR 03B9
ENCODING 953
SWIDTH 300 0
DWIDTH 5 0
BBX 4 8 1 0
BITMAP
40
C0
40
40
40
40
40
30
ENDCHAR
STARTCHAR 03BA
ENCODING 954
SWIDTH 660 0
DWIDTH 11 0
BBX 10 8 1 0
BITMAP
4780
C200
4C00
5800
6400
4200
4180
E040
ENDCHAR
STARTCHAR 03BB
ENCODING 955
SWIDTH 540 0
DWIDTH 9 0
BBX 9 13 0 0
BITMAP
2000
7000
1000
0800
0800
0800
1400
1400
2200
2200
4200
4100
E780
ENDCHAR
STARTCHAR 03BC
ENCODING 956
SWIDTH 720 0
DWIDTH 12 0
BBX 11 12 0 -4
BITMAP
E1C0
2040
2040
2040
2040
2040
31C0
3E60
2000
2000
2000
2000
ENDCHAR
STARTCHAR 03BD
ENCODING 957
SWIDTH 540 0
DWIDTH 9 0
BBX 8 8 0 0
BITMAP
E1
21
21
12
12
14
14
08
ENDCHAR
STARTCHAR 03BE
ENCODING 958
SWIDTH 420 0
DWIDTH 7 0
BBX 7 17 0 -4
BITMAP
3E
42
40
40
20
3E
40
80
80
80
80
60
18
04
02
42
7C
ENDCHAR
STARTCHAR 03BF
ENCODING 959
SWIDTH 600 0
DWIDTH 10 0
BBX 8 8 1 0
BITMAP
3C
42
81
81
81
81
42
3C
ENDCHAR
STARTCHAR 03C0
ENCODING 960
SWIDTH 660 0
DWIDTH 11 0
BBX 9 8 1 0
BITMAP
FF80
4100
4100
4100
4100
4100
4100
E180
ENDCHAR
STARTCHAR 03C1
ENCODING 961
SWIDTH 600 0
DWIDTH 10 0
BBX 8 12 1 -4
BITMAP
3C
42
81
81
81
81
C2
BC
80
80
80
80
ENDCHAR
STARTCHAR 03C2
ENCODING 962
SWIDTH 480 0
DWIDTH 8 0
BBX 8 12 0 -4
BITMAP
3C
42
81
80
80
80
60
18
04
02
42
7C
ENDCHAR
STARTCHAR 03C3
ENCODING 963
SWIDTH 600 0
DWIDTH 10 0
BBX 9 8 1 0
BITMAP
3F80
4200
8100
8100
8100
8100
4200
3C00
ENDCHAR
STARTCHAR 03C4
ENCODING 964
SWIDTH 420 0
DWIDTH 7 0
BBX 6 8 0 0
BITMAP
FC
20
20
20
20
20
24
18
ENDCHAR
STARTCHAR 03C5
ENCODING 965
SWIDTH 600 0
DWIDTH 10 0
BBX 9 8 0 0
BITMAP
E380
2080
2080
2080
2080
2080
2080
1F00
ENDCHAR
STARTCHAR 03C6
ENCODING 966
SWIDTH 720 0
DWIDTH 12 0
BBX 9 12 1 -4
BITMAP
2600
4900
8880
8880
8880
8880
4900
3E00
0800
0800
0800
0800
ENDCHAR
STARTCHAR 03C7
ENCODING 967
SWIDTH 600 0
DWIDTH 10 0
BBX 9 8 0 0
BITMAP
C780
2200
1400
0800
1400
2200
4100
E080
ENDCHAR
STARTCHAR 03C8
ENCODING 968
SWIDTH 780 0
DWIDTH 13 0
BBX 10 12 1 -4
BITMAP
C4C0
4440
4440
4440
4440
4440
2480
1F00
0400
0400
0400
0400
ENDCHAR
STARTCHAR 03C9
ENCODING 969
SWIDTH 720 0
DWIDTH 12 0
BBX 9 8 1 0
BITMAP
3600
4100
8080
8880
8880
8880
5500
3600
ENDCHAR
STARTCHAR 03CA
ENCODING 970
SWIDTH 300 0
DWIDTH 5 0
BBX 4 12 1 0
BITMAP
A0
A0
00
00
40
C0
40
40
40
40
40
30
ENDCHAR
STARTCHAR 03CB
ENCODING 971
SWIDTH 600 0
DWIDTH 10 0
BBX 9 12 0 0
BITMAP
0A00
0A00
0000
0000
E380
2080
2080
2080
2080
2080
2080
1F00
ENDCHAR
STARTCHAR 03CC
ENCODING 972
SWIDTH 600 0
DWIDTH 10 0
BBX 8 13 1 0
BITMAP
08
08
08
00
00
3C
42
81
81
81
81
42
3C
ENDCHAR
STARTCHAR 03CD
ENCODING 973
SWIDTH 600 0
DWIDTH 10 0
BBX 9 13 0 0
BITMAP
0400
0400
0400
0000
0000
E380
2080
2080
2080
2080
2080
2080
1F00
ENDCHAR
STARTCHAR 03CE
ENCODING 974
SWIDTH 720 0
DWIDTH 12 0
BBX 9 13 1 0
BITMAP
0800
0800
0800
0000
0000
3600
4100
8080
8880
8880
8880
5500
3600
ENDCHAR
STARTCHAR 0401
ENCODING 1025
SWIDTH 660 0
DWIDTH 11 0
BBX 9 15 2 0
BITMAP
1400
1400
0000
FF00
4100
4080
4400
4400
7C00
4400
4400
4080
4080
4100
FF00
ENDCHAR
STARTCHAR 0402
ENCODING 1026
SWIDTH 780 0
DWIDTH 13 0
BBX 12 14 0 -2
BITMAP
7FC0
C460
8420
0400
05C0
0620
0410
0410
0410
0410
0410
1F20
0020
03C0
ENDCHAR
STARTCHAR 0403
ENCODING 1027
SWIDTH 600 0
DWIDTH 10 0
BBX 10 15 0 0
BITMAP
0300
0600
0000
FF80
20C0
2040
2000
2000
2000
2000
2000
2000
2000
2000
F800
ENDCHAR
STARTCHAR 0404
ENCODING 1028
SWIDTH 780 0
DWIDTH 13 0
BBX 11 12 1 0
BITMAP
1F40
20E0
4020
8000
8000
FE00
8000
8000
8000
4020
20C0
1F00
ENDCHAR
STARTCHAR 0405
ENCODING 1029
SWIDTH 660 0
DWIDTH 11 0
BBX 9 12 1 0
BITMAP
3D00
4300
8180
8080
C000
3800
0600
0180
8080
C080
6100
5E00
ENDCHAR
STARTCHAR 0406
ENCODING 1030
SWIDTH 360 0
DWIDTH 6 0
BBX 3 12 1 0
BITMAP
E0
40
40
40
40
40
40
40
40
40
40
E0
ENDCHAR
STARTCHAR 0407
ENCODING 1031
SWIDTH 360 0
DWIDTH 6 0
BBX 3 15 1 0
BITMAP
A0
A0
00
E0
40
40
40
40
40
40
40
40
40
40
E0
ENDCHAR
STARTCHAR 0408
ENCODING 1032
SWIDTH 600 0
DWIDTH 10 0
BBX 9 12 0 0
BITMAP
0380
0100
0100
0100
0100
0100
0100
0100
8100
8100
4200
3C00
ENDCHAR
STARTCHAR 0409
ENCODING 1033
SWIDTH 900 0
DWIDTH 15 0
BBX 15 12 0 0
BITMAP
3F80
0900
0900
1100
1100
11F8
2104
2102
2102
4102
4104
E3F8
ENDCHAR
STARTCHAR 040A
ENCODING 1034
SWIDTH 1020 0
DWIDTH 17 0
BBX 17 12 0 0
BITMAP
F8F800
202000
202000
202000
202000
3FFE00
202100
202080
202080
202080
202100
F8FE00
ENDCHAR
STARTCHAR 040B
ENCODING 1035
SWIDTH 840 0
DWIDTH 14 0
BBX 14 12 0 0
BITMAP
7FC0
C460
8420
0400
05E0
0610
0410
0410
0410
0410
0410
1F7C
ENDCHAR
STARTCHAR 040C
ENCODING 1036
SWIDTH 720 0
DWIDTH 12 0
BBX 10 15 2 0
BITMAP
0C00
1800
0000
E3C0
4100
4200
4400
4800
5800
6800
4400
4200
4100
4100
E3C0
ENDCHAR
STARTCHAR 040E
ENCODING 1038
SWIDTH 660 0
DWIDTH 11 0
BBX 11 15 0 0
BITMAP
1080
0F00
0000
F0E0
4040
2080
1080
1100
0900
0500
0600
0200
0400
2400
1800
ENDCHAR
STARTCHAR 040F
ENCODING 1039
SWIDTH 780 0
DWIDTH 13 0
BBX 13 15 0 -3
BITMAP
F8F8
2020
2020
2020
2020
2020
2020
2020
2020
2020
2020
FFF8
0200
0200
0200
ENDCHAR
STARTCHAR 0410
ENCODING 1040
SWIDTH 720 0
DWIDTH 12 0
BBX 11 12 0 0
BITMAP
0400
0A00
0A00
0A00
1100
1100
1F00
2080
2080
2040
4040
E0E0
ENDCHAR
STARTCHAR 0411
ENCODING 1041
SWIDTH 780 0
DWIDTH 13 0
BBX 12 12 0 0
BITMAP
FFC0
2060
2020
2000
2000
3FC0
2020
2010
2010
2010
2020
FFC0
ENDCHAR
STARTCHAR 0412
ENCODING 1042
SWIDTH 780 0
DWIDTH 13 0
BBX 11 12 1 0
BITMAP
FF80
4040
4020
4020
4040
7F80
4040
4020
4020
4020
4040
FF80
ENDCHAR
STARTCHAR 0413
ENCODING 1043
SWIDTH 600 0
DWIDTH 10 0
BBX 10 12 0 0
BITMAP
FF80
20C0
2040
2000
2000
2000
2000
2000
2000
2000
2000
F800
ENDCHAR
STARTCHAR 0414
ENCODING 1044
SWIDTH 780 0
DWIDTH 13 0
BBX 14 14 -1 -2
BITMAP
0FF8
0210
0410
0410
0410
0810
0810
0810
1010
1010
1010
7FF8
C00C
8004
ENDCHAR
STARTCHAR 0415
ENCODING 1045
SWIDTH 660 0
DWIDTH 11 0
BBX 9 12 2 0
BITMAP
FF00
4100
4080
4400
4400
7C00
4400
4400
4080
4080
4100
FF00
ENDCHAR
STARTCHAR 0416
ENCODING 1046
SWIDTH 1080 0
DWIDTH 18 0
BBX 17 12 0 0
BITMAP
79CF00
108400
088800
088800
049000
02A000
03E000
049000
088800
108400
208200
F9CF80
ENDCHAR
STARTCHAR 0417
ENCODING 1047
SWIDTH 660 0
DWIDTH 11 0
BBX 9 12 1 0
BITMAP
5E00
E100
8080
0080
0100
1E00
0100
0080
0080
8080
4100
3E00
ENDCHAR
STARTCHAR 0418
ENCODING 1048
SWIDTH 840 0
DWIDTH 14 0
BBX 14 12 0 0
BITMAP
F87C
2010
2010
2030
20D0
2110
2210
2C10
3010
2010
2010
F87C
ENDCHAR
STARTCHAR 0419
ENCODING 1049
SWIDTH 840 0
DWIDTH 14 0
BBX 14 15 0 0
BITMAP
1860
0FC0
0000
F87C
2010
2010
2030
20D0
2110
2210
2C10
3010
2010
2010
F87C
ENDCHAR
STARTCHAR 041A
ENCODING 1050
SWIDTH 720 0
DWIDTH 12 0
BBX 10 12 2 0
BITMAP
E3C0
4100
4200
4400
4800
5800
6800
4400
4200
4100
4100
E3C0
ENDCHAR
STARTCHAR 041B
ENCODING 1051
SWIDTH 720 0
DWIDTH 12 0
BBX 11 12 0 0
BITMAP
0400
0A00
0A00
0A00
1100
1100
2100
2080
2080
4040
4040
E1E0
ENDCHAR
STARTCHAR 041C
ENCODING 1052
SWIDTH 960 0
DWIDTH 16 0
BBX 13 12 2 0
BITMAP
E038
6030
7030
5050
5050
4890
4890
4890
4510
4510
4710
E238
ENDCHAR
STARTCHAR 041D
ENCODING 1053
SWIDTH 840 0
DWIDTH 14 0
BBX 11 12 1 0
BITMAP
E0E0
4040
4040
4040
4040
7FC0
4040
4040
4040
4040
4040
E0E0
ENDCHAR
STARTCHAR 041E
ENCODING 1054
SWIDTH 840 0
DWIDTH 14 0
BBX 12 12 1 0
BITMAP
1F80
2040
4020
8010
8010
8010
8010
8010
8010
4020
2040
1F80
ENDCHAR
STARTCHAR 041F
ENCODING 1055
SWIDTH 780 0
DWIDTH 13 0
BBX 12 12 0 0
BITMAP
FFF0
2040
2040
2040
2040
2040
2040
2040
2040
2040
2040
F9F0
ENDCHAR
STARTCHAR 0420
ENCODING 1056
SWIDTH 660 0
DWIDTH 11 0
BBX 10 12 1 0
BITMAP
FF00
4080
4040
4040
4040
4080
7F00
4000
4000
4000
4000
E000
ENDCHAR
STARTCHAR 0421
ENCODING 1057
SWIDTH 780 0
DWIDTH 13 0
BBX 11 12 1 0
BITMAP
1F40
20C0
4020
8020
8000
8000
8000
8000
8000
4020
20C0
1F00
ENDCHAR
STARTCHAR 0422
ENCODING 1058
SWIDTH 660 0
DWIDTH 11 0
BBX 11 12 0 0
BITMAP
7FC0
C440
8420
0400
0400
0400
0400
0400
0400
0400
0400
0E00
ENDCHAR
STARTCHAR 0423
ENCODING 1059
SWIDTH 660 0
DWIDTH 11 0
BBX 11 12 0 0
BITMAP
F0E0
4040
2080
1080
1100
0900
0500
0600
0200
0400
2400
1800
ENDCHAR
STARTCHAR 0424
ENCODING 1060
SWIDTH 840 0
DWIDTH 14 0
BBX 13 12 0 0
BITMAP
0F80
0200
3FE0
4210
8208
8208
8208
4210
3FE0
0200
0200
0F80
ENDCHAR
STARTCHAR 0425
ENCODING 1061
SWIDTH 720 0
DWIDTH 12 0
BBX 11 12 0 0
BITMAP
F0E0
2040
1080
0900
0A00
0600
0600
0A00
1100
2080
2040
F0E0
ENDCHAR
STARTCHAR 0426
ENCODING 1062
SWIDTH 780 0
DWIDTH 13 0
BBX 12 14 0 -2
BITMAP
F9F0
2040
2040
2040
2040
2040
2040
2040
2040
2040
2040
FFE0
0030
0010
ENDCHAR
STARTCHAR 0427
ENCODING 1063
SWIDTH 720 0
DWIDTH 12 0
BBX 12 12 0 0
BITMAP
F9F0
2040
2040
2040
2040
3040
1FC0
0040
0040
0040
0040
01F0
ENDCHAR
STARTCHAR 0428
ENCODING 1064
SWIDTH 1080 0
DWIDTH 18 0
BBX 17 12 0 0
BITMAP
FBEF80
208200
208200
208200
208200
208200
208200
208200
208200
208200
208200
FFFF80
ENDCHAR
STARTCHAR 0429
ENCODING 1065
SWIDTH 1080 0
DWIDTH 18 0
BBX 17 14 0 -2
BITMAP
FBEF80
208200
208200
208200
208200
208200
208200
208200
208200
208200
208200
FFFF00
000180
000080
ENDCHAR
STARTCHAR 042A
ENCODING 1066
SWIDTH 780 0
DWIDTH 13 0
BBX 13 12 0 0
BITMAP
7F00
C400
8400
0400
0400
07E0
0410
0408
0408
0408
0410
1FE0
ENDCHAR
STARTCHAR 042B
ENCODING 1067
SWIDTH 1020 0
DWIDTH 17 0
BBX 15 12 0 0
BITMAP
F80E
2004
2004
2004
2004
3F84
2044
2024
2024
2024
2044
FF8E
ENDCHAR
STARTCHAR 042C
ENCODING 1068
SWIDTH 660 0
DWIDTH 11 0
BBX 11 12 0 0
BITMAP
F800
2000
2000
2000
2000
3F80
2040
2020
2020
2020
2040
FF80
ENDCHAR
STARTCHAR 042D
ENCODING 1069
SWIDTH 780 0
DWIDTH 13 0
BBX 11 12 1 0
BITMAP
5F00
E080
8040
0020
0020
0FE0
0020
0020
0020
8040
6080
1F00
ENDCHAR
STARTCHAR 042E
ENCODING 1070
SWIDTH 1200 0
DWIDTH 20 0
BBX 19 12 0 0
BITMAP
F83F00
204080
208040
210020
210020
3F0020
210020
210020
210020
208040
204080
F83F00
ENDCHAR
STARTCHAR 042F
ENCODING 1071
SWIDTH 720 0
DWIDTH 12 0
BBX 9 12 1 0
BITMAP
3F80
4100
8100
8100
4100
3F00
0900
1100
2100
2100
4100
8380
ENDCHAR
STARTCHAR 0430
ENCODING 1072
SWIDTH 600 0
DWIDTH 10 0
BBX 9 8 1 0
BITMAP
7C00
8200
8200
1E00
6200
8200
8600
7B80
ENDCHAR
STARTCHAR 0431
ENCODING 1073
SWIDTH 600 0
DWIDTH 10 0
BBX 8 13 1 0
BITMAP
01
3E
40
40
80
BC
C2
81
81
81
81
42
3C
ENDCHAR
STARTCHAR 0432
ENCODING 1074
SWIDTH 600 0
DWIDTH 10 0
BBX 8 8 1 0
BITMAP
FE
41
41
7E
41
41
41
FE
ENDCHAR
STARTCHAR 0433
ENCODING 1075
SWIDTH 480 0
DWIDTH 8 0
BBX 7 8 1 0
BITMAP
FC
46
42
40
40
40
40
F0
ENDCHAR
STARTCHAR 0434
ENCODING 1076
SWIDTH 600 0
DWIDTH 10 0
BBX 11 10 -1 -2
BITMAP
1FC0
0880
0880
0880
1080
1080
3080
7FC0
C060
8020
ENDCHAR
STARTCHAR 0435
ENCODING 1077
SWIDTH 600 0
DWIDTH 10 0
BBX 8 8 1 0
BITMAP
3C
42
81
FF
80
81
42
3C
ENDCHAR
STARTCHAR 0436
ENCODING 1078
SWIDTH 900 0
DWIDTH 15 0
BBX 15 8 0 0
BITMAP
F39E
2108
1930
0540
0BA0
1110
610C
F39E
ENDCHAR
STARTCHAR 0437
ENCODING 1079
SWIDTH 480 0
DWIDTH 8 0
BBX 6 8 1 0
BITMAP
78
C4
84
38
04
84
44
38
ENDCHAR
STARTCHAR 0438
ENCODING 1080
SWIDTH 660 0
DWIDTH 11 0
BBX 9 8 1 0
BITMAP
E380
4100
4300
4D00
5900
6100
4100
E380
ENDCHAR
STARTCHAR 0439
ENCODING 1081
SWIDTH 660 0
DWIDTH 11 0
BBX 9 12 1 0
BITMAP
4100
3E00
0000
0000
E380
4100
4300
4D00
5900
6100
4100
E380
ENDCHAR
STARTCHAR 043A
ENCODING 1082
SWIDTH 660 0
DWIDTH 11 0
BBX 10 8 1 0
BITMAP
E780
4200
4C00
5000
6C00
4200
4100
E3C0
ENDCHAR
STARTCHAR 043B
ENCODING 1083
SWIDTH 540 0
DWIDTH 9 0
BBX 9 8 0 0
BITMAP
0800
1400
1400
2200
2200
4100
4100
E780
ENDCHAR
STARTCHAR 043C
ENCODING 1084
SWIDTH 780 0
DWIDTH 13 0
BBX 11 8 1 0
BITMAP
E0E0
60C0
5140
5140
4A40
4A40
4440
E4E0
ENDCHAR
STARTCHAR 043D
ENCODING 1085
SWIDTH 660 0
DWIDTH 11 0
BBX 9 8 1 0
BITMAP
E380
4100
4100
7F00
4100
4100
4100
E380
ENDCHAR
STARTCHAR 043E
ENCODING 1086
SWIDTH 600 0
DWIDTH 10 0
BBX 8 8 1 0
BITMAP
3C
42
81
81
81
81
42
3C
ENDCHAR
STARTCHAR 043F
ENCODING 1087
SWIDTH 660 0
DWIDTH 11 0
BBX 9 8 1 0
BITMAP
FF80
4100
4100
4100
4100
4100
4100
E380
ENDCHAR
STARTCHAR 0440
ENCODING 1088
SWIDTH 660 0
DWIDTH 11 0
BBX 9 12 1 -4
BITMAP
5E00
E100
4080
4080
4080
4080
6100
5E00
4000
4000
4000
E000
ENDCHAR
STARTCHAR 0441
ENCODING 1089
SWIDTH 540 0
DWIDTH 9 0
BBX 7 8 1 0
BITMAP
3C
46
82
80
80
82
44
38
ENDCHAR
STARTCHAR 0442
ENCODING 1090
SWIDTH 540 0
DWIDTH 9 0
BBX 9 8 0 0
BITMAP
7F00
C980
8880
0800
0800
0800
0800
1C00
ENDCHAR
STARTCHAR 0443
ENCODING 1091
SWIDTH 540 0
DWIDTH 9 0
BBX 9 12 0 -4
BITMAP
E380
4100
2200
2200
1200
1400
1400
0800
0800
0800
9000
E000
ENDCHAR
STARTCHAR 0444
ENCODING 1092
SWIDTH 840 0
DWIDTH 14 0
BBX 13 17 0 -4
BITMAP
0200
0600
0200
0200
0200
3AE0
4710
8208
8208
8208
8208
4710
3AE0
0200
0200
0200
0700
ENDCHAR
STARTCHAR 0445
ENCODING 1093
SWIDTH 600 0
DWIDTH 10 0
BBX 10 8 0 0
BITMAP
F9C0
2100
1200
0C00
0C00
1200
2100
F3C0
ENDCHAR
STARTCHAR 0446
ENCODING 1094
SWIDTH 660 0
DWIDTH 11 0
BBX 10 10 1 -2
BITMAP
E380
4100
4100
4100
4100
4100
4100
FF80
00C0
0040
ENDCHAR
STARTCHAR 0447
ENCODING 1095
SWIDTH 600 0
DWIDTH 10 0
BBX 9 8 0 0
BITMAP
E780
4100
4100
4100
3F00
0100
0100
0780
ENDCHAR
STARTCHAR 0448
ENCODING 1096
SWIDTH 960 0
DWIDTH 16 0
BBX 13 8 1 0
BITMAP
E738
4210
4210
4210
4210
4210
4210
FFF8
ENDCHAR
STARTCHAR 0449
ENCODING 1097
SWIDTH 900 0
DWIDTH 15 0
BBX 14 10 1 -2
BITMAP
E738
4210
4210
4210
4210
4210
4210
FFF8
000C
0004
ENDCHAR
STARTCHAR 044A
ENCODING 1098
SWIDTH 600 0
DWIDTH 10 0
BBX 9 8 0 0
BITMAP
7E00
C800
8800
0F00
0880
0880
0880
1F00
ENDCHAR
STARTCHAR 044B
ENCODING 1099
SWIDTH 840 0
DWIDTH 14 0
BBX 12 8 1 0
BITMAP
F070
4020
4020
7C20
4220
4220
4220
FC70
ENDCHAR
STARTCHAR 044C
ENCODING 1100
SWIDTH 540 0
DWIDTH 9 0
BBX 7 8 1 0
BITMAP
F0
40
40
7C
42
42
42
FC
ENDCHAR
STARTCHAR 044D
ENCODING 1101
SWIDTH 540 0
DWIDTH 9 0
BBX 7 8 1 0
BITMAP
78
C4
82
1E
02
82
44
38
ENDCHAR
STARTCHAR 044E
ENCODING 1102
SWIDTH 840 0
DWIDTH 14 0
BBX 12 8 1 0
BITMAP
E3C0
4420
4810
7810
4810
4810
4420
E3C0
ENDCHAR
STARTCHAR 044F
ENCODING 1103
SWIDTH 600 0
DWIDTH 10 0
BBX 9 8 0 0
BITMAP
3F80
4100
4100
3F00
1100
2100
6100
F380
ENDCHAR
STARTCHAR 0451
ENCODING 1105
SWIDTH 600 0
DWIDTH 10 0
BBX 8 12 1 0
BITMAP
28
28
00
00
3C
42
81
FF
80
81
42
3C
ENDCHAR
STARTCHAR 0452
ENCODING 1106
SWIDTH 600 0
DWIDTH 10 0
BBX 8 15 1 -2
BITMAP
40
C0
40
FE
40
5C
62
41
41
41
41
41
E1
02
1C
ENDCHAR
STARTCHAR 0453
ENCODING 1107
SWIDTH 480 0
DWIDTH 8 0
BBX 7 12 1 0
BITMAP
30
60
00
00
FC
46
42
40
40
40
40
F0
ENDCHAR
STARTCHAR 0454
ENCODING 1108
SWIDTH 540 0
DWIDTH 9 0
BBX 7 8 1 0
BITMAP
3C
46
82
F0
80
82
44
38
ENDCHAR
STARTCHAR 0455
ENCODING 1109
SWIDTH 540 0
DWIDTH 9 0
BBX 7 8 1 0
BITMAP
74
8E
82
70
1C
82
E2
5C
ENDCHAR
STARTCHAR 0456
ENCODING 1110
SWIDTH 300 0
DWIDTH 5 0
BBX 3 13 1 0
BITMAP
40
40
00
00
00
40
C0
40
40
40
40
40
E0
ENDCHAR
STARTCHAR 0457
ENCODING 1111
SWIDTH 300 0
DWIDTH 5 0
BBX 3 12 1 0
BITMAP
A0
A0
00
00
40
C0
40
40
40
40
40
E0
ENDCHAR
STARTCHAR 0458
ENCODING 1112
SWIDTH 300 0
DWIDTH 5 0
BBX 5 17 -2 -4
BITMAP
08
08
00
00
00
08
18
08
08
08
08
08
08
08
08
C8
70
ENDCHAR
STARTCHAR 0459
ENCODING 1113
SWIDTH 720 0
DWIDTH 12 0
BBX 11 8 0 0
BITMAP
7F80
1200
2200
2200
23C0
4220
4220
E7C0
ENDCHAR
STARTCHAR 045A
ENCODING 1114
SWIDTH 840 0
DWIDTH 14 0
BBX 12 8 1 0
BITMAP
E700
4200
4200
4200
7FE0
4210
4210
E7E0
ENDCHAR
STARTCHAR 045B
ENCODING 1115
SWIDTH 660 0
DWIDTH 11 0
BBX 9 13 1 0
BITMAP
4000
C000
4000
FC00
4000
5E00
6100
4100
4100
4100
4100
4100
E780
ENDCHAR
STARTCHAR 045C
ENCODING 1116
SWIDTH 660 0
DWIDTH 11 0
BBX 10 12 1 0
BITMAP
0C00
1800
0000
0000
E780
4200
4C00
5000
6C00
4200
4100
E3C0
ENDCHAR
STARTCHAR 045E
ENCODING 1118
SWIDTH 540 0
DWIDTH 9 0
BBX 9 16 0 -4
BITMAP
4100
3E00
0000
0000
F380
4100
2200
2200
1200
1400
0C00
0800
0800
0800
9000
E000
ENDCHAR
STARTCHAR 045F
ENCODING 1119
SWIDTH 660 0
DWIDTH 11 0
BBX 9 10 1 -2
BITMAP
E380
4100
4100
4100
4100
4100
4100
FF80
0800
0800
ENDCHAR
STARTCHAR 0490
ENCODING 1168
SWIDTH 480 0
DWIDTH 8 0
BBX 7 14 1 0
BITMAP
02
06
FC
40
40
40
40
40
40
40
40
40
40
E0
ENDCHAR
STARTCHAR 0491
ENCODING 1169
SWIDTH 420 0
DWIDTH 7 0
BBX 6 10 1 0
BITMAP
04
0C
F8
40
40
40
40
40
40
F0
ENDCHAR
STARTCHAR 1E80
ENCODING 7808
SWIDTH 960 0
DWIDTH 16 0
BBX 15 15 1 0
BITMAP
0300
0180
0000
E38E
4104
4104
2108
2288
2288
2290
14D0
1450
1450
1860
0820
ENDCHAR
STARTCHAR 1E81
ENCODING 7809
SWIDTH 780 0
DWIDTH 13 0
BBX 13 12 0 0
BITMAP
0300
0180
0000
0000
F7B8
2110
2310
2310
14A0
14A0
14A0
0840
ENDCHAR
STARTCHAR 1E82
ENCODING 7810
SWIDTH 960 0
DWIDTH 16 0
BBX 15 15 1 0
BITMAP
0180
0300
0000
E38E
4104
4104
2108
2288
2288
2290
14D0
1450
1450
1860
0820
ENDCHAR
STARTCHAR 1E83
ENCODING 7811
SWIDTH 780 0
DWIDTH 13 0
BBX 13 12 0 0
BITMAP
0180
0300
0000
0000
F7B8
2110
2310
2310
14A0
14A0
14A0
0840
ENDCHAR
STARTCHAR 1E84
ENCODING 7812
SWIDTH 960 0
DWIDTH 16 0
BBX 15 15 1 0
BITMAP
0280
0280
0000
E38E
4104
4104
2108
2288
2288
2290
14D0
1450
1450
1860
0820
ENDCHAR
STARTCHAR 1E85
ENCODING 7813
SWIDTH 780 0
DWIDTH 13 0
BBX 13 12 0 0
BITMAP
0500
0500
0000
0000
F7B8
2110
2310
2310
14A0
14A0
14A0
0840
ENDCHAR
STARTCHAR 1EF2
ENCODING 7922
SWIDTH 660 0
DWIDTH 11 0
BBX 9 15 0 0
BITMAP
1800
0C00
0000
F380
2100
2100
1200
1400
1400
0800
0800
0800
0800
0800
1C00
ENDCHAR
STARTCHAR 1EF3
ENCODING 7923
SWIDTH 540 0
DWIDTH 9 0
BBX 9 16 0 -4
BITMAP
1800
0C00
0000
0000
E380
4100
2200
2200
1200
1400
1400
0800
0800
0800
9000
E000
ENDCHAR
STARTCHAR 2013
ENCODING 8211
SWIDTH 540 0
DWIDTH 9 0
BBX 9 1 0 4
BITMAP
FF80
ENDCHAR
STARTCHAR 2014
ENCODING 8212
SWIDTH 1020 0
DWIDTH 17 0
BBX 17 1 0 4
BITMAP
FFFF80
ENDCHAR
STARTCHAR 2015
ENCODING 8213
SWIDTH 780 0
DWIDTH 13 0
BBX 13 1 0 4
BITMAP
FFF8
ENDCHAR
STARTCHAR 2017
ENCODING 8215
SWIDTH 540 0
DWIDTH 9 0
BBX 9 3 0 -4
BITMAP
FF80
0000
FF80
ENDCHAR
STARTCHAR 2018
ENCODING 8216
SWIDTH 240 0
DWIDTH 4 0
BBX 3 5 1 8
BITMAP
20
40
80
C0
C0
ENDCHAR
STARTCHAR 2019
ENCODING 8217
SWIDTH 240 0
DWIDTH 4 0
BBX 3 5 1 8
BITMAP
60
60
20
40
80
ENDCHAR
STARTCHAR 201A
ENCODING 8218
SWIDTH 240 0
DWIDTH 4 0
BBX 3 5 1 -3
BITMAP
60
60
20
40
80
ENDCHAR
STARTCHAR 201B
ENCODING 8219
SWIDTH 240 0
DWIDTH 4 0
BBX 3 5 1 8
BITMAP
C0
C0
80
40
20
ENDCHAR
STARTCHAR 201C
ENCODING 8220
SWIDTH 420 0
DWIDTH 7 0
BBX 6 5 0 8
BITMAP
24
48
90
D8
D8
ENDCHAR
STARTCHAR 201D
ENCODING 8221
SWIDTH 420 0
DWIDTH 7 0
BBX 6 5 -1 8
BITMAP
6C
6C
24
48
90
ENDCHAR
STARTCHAR 201E
ENCODING 8222
SWIDTH 420 0
DWIDTH 7 0
BBX 6 5 -1 -3
BITMAP
6C
6C
24
48
90
ENDCHAR
STARTCHAR 2020
ENCODING 8224
SWIDTH 540 0
DWIDTH 9 0
BBX 7 15 1 -3
BITMAP
38
38
38
10
FE
10
38
38
10
10
10
10
10
10
10
ENDCHAR
STARTCHAR 2021
ENCODING 8225
SWIDTH 540 0
DWIDTH 9 0
BBX 7 15 1 -3
BITMAP
38
38
38
10
FE
10
10
38
10
10
FE
10
38
38
38
ENDCHAR
STARTCHAR 2022
ENCODING 8226
SWIDTH 480 0
DWIDTH 8 0
BBX 5 5 1 3
BITMAP
70
F8
F8
F8
70
ENDCHAR
STARTCHAR 2026
ENCODING 8230
SWIDTH 1020 0
DWIDTH 17 0
BBX 11 2 2 0
BITMAP
8420
8420
ENDCHAR
STARTCHAR 2030
ENCODING 8240
SWIDTH 1200 0
DWIDTH 20 0
BBX 19 12 0 0
BITMAP
704000
884000
888000
888000
890000
720000
0271C0
048A20
088A20
088A20
108A20
1071C0
ENDCHAR
STARTCHAR 2032
ENCODING 8242
SWIDTH 240 0
DWIDTH 4 0
BBX 2 4 1 8
BITMAP
40
40
80
80
ENDCHAR
STARTCHAR 2033
ENCODING 8243
SWIDTH 360 0
DWIDTH 6 0
BBX 5 4 1 8
BITMAP
48
48
90
90
ENDCHAR
STARTCHAR 2039
ENCODING 8249
SWIDTH 240 0
DWIDTH 4 0
BBX 3 6 1 1
BITMAP
20
40
80
80
40
20
ENDCHAR
STARTCHAR 203A
ENCODING 8250
SWIDTH 240 0
DWIDTH 4 0
BBX 3 6 1 1
BITMAP
80
40
20
20
40
80
ENDCHAR
STARTCHAR 203C
ENCODING 8252
SWIDTH 540 0
DWIDTH 9 0
BBX 5 12 2 0
BITMAP
88
88
88
88
88
88
88
88
88
00
88
88
ENDCHAR
STARTCHAR 203E
ENCODING 8254
SWIDTH 660 0
DWIDTH 11 0
BBX 11 1 0 15
BITMAP
FFE0
ENDCHAR
STARTCHAR 2044
ENCODING 8260
SWIDTH 120 0
DWIDTH 2 0
BBX 8 12 -3 0
BITMAP
01
02
02
04
08
08
10
20
20
40
80
80
ENDCHAR
STARTCHAR 207F
ENCODING 8319
SWIDTH 420 0
DWIDTH 7 0
BBX 7 5 0 5
BITMAP
DC
64
44
44
EE
ENDCHAR
STARTCHAR 20A3
ENCODING 8355
SWIDTH 660 0
DWIDTH 11 0
BBX 10 12 1 0
BITMAP
FF80
4180
40C0
4040
4200
4200
7E00
4200
4200
F000
4000
E000
ENDCHAR
STARTCHAR 20A4
ENCODING 8356
SWIDTH 660 0
DWIDTH 11 0
BBX 11 12 0 0
BITMAP
0F00
1080
2040
2040
FC00
2000
FC00
1000
7020
9020
9840
6780
ENDCHAR
STARTCHAR 20A7
ENCODING 8359
SWIDTH 1380 0
DWIDTH 23 0
BBX 20 12 1 0
BITMAP
FE0000
412000
40A000
40A000
40FFE0
41A460
7E2410
402380
402060
402410
402710
E03AE0
ENDCHAR
STARTCHAR 20AC
ENCODING 8364
SWIDTH 660 0
DWIDTH 11 0
BBX 10 12 0 0
BITMAP
0F80
3180
20C0
4040
FF00
4000
FF00
4000
4000
2040
1080
0F00
ENDCHAR
STARTCHAR 2105
ENCODING 8453
SWIDTH 900 0
DWIDTH 15 0
BBX 13 12 1 0
BITMAP
7020
8840
8080
8880
7100
0200
0200
0470
0888
0888
1088
2070
ENDCHAR
STARTCHAR 2113
ENCODING 8467
SWIDTH 480 0
DWIDTH 8 0
BBX 7 12 1 0
BITMAP
1C
24
24
24
28
30
20
60
A0
22
24
18
ENDCHAR
STARTCHAR 2116
ENCODING 8470
SWIDTH 1080 0
DWIDTH 18 0
BBX 16 12 1 0
BITMAP
E1C0
6080
5080
4880
488E
4491
4491
4291
4191
418E
4080
E09F
ENDCHAR
STARTCHAR 2122
ENCODING 8482
SWIDTH 1020 0
DWIDTH 17 0
BBX 17 7 -1 5
BITMAP
FEE380
926300
107300
105500
104D00
104D00
38E380
ENDCHAR
STARTCHAR 2126
ENCODING 8486
SWIDTH 780 0
DWIDTH 13 0
BBX 12 12 0 0
BITMAP
1F80
2040
4020
8010
8010
8010
8010
8010
4020
60C0
A090
E0F0
ENDCHAR
STARTCHAR 212E
ENCODING 8494
SWIDTH 600 0
DWIDTH 10 0
BBX 8 9 1 0
BITMAP
3C
C2
81
FF
80
80
82
44
38
ENDCHAR
STARTCHAR 215B
ENCODING 8539
SWIDTH 960 0
DWIDTH 16 0
BBX 12 12 2 0
BITMAP
C040
4080
4080
4100
4200
E200
04E0
0910
08E0
11B0
2110
20E0
ENDCHAR
STARTCHAR 215C
ENCODING 8540
SWIDTH 960 0
DWIDTH 16 0
BBX 14 12 0 0
BITMAP
F810
0820
3020
0840
8880
7080
0138
0244
0238
046C
0844
0838
ENDCHAR
STARTCHAR 215D
ENCODING 8541
SWIDTH 960 0
DWIDTH 16 0
BBX 12 12 2 0
BITMAP
F040
8080
E080
1100
9200
6200
04E0
0910
08E0
11B0
2110
20E0
ENDCHAR
STARTCHAR 215E
ENCODING 8542
SWIDTH 960 0
DWIDTH 16 0
BBX 13 12 1 0
BITMAP
7040
A080
2080
4100
4200
4200
0470
0888
0870
10D8
2088
2070
ENDCHAR
STARTCHAR 2190
ENCODING 8592
SWIDTH 1020 0
DWIDTH 17 0
BBX 16 7 1 1
BITMAP
1000
2000
4000
FFFF
4000
2000
1000
ENDCHAR
STARTCHAR 2191
ENCODING 8593
SWIDTH 540 0
DWIDTH 9 0
BBX 7 16 1 -4
BITMAP
10
38
54
92
10
10
10
10
10
10
10
10
10
10
10
10
ENDCHAR
STARTCHAR 2192
ENCODING 8594
SWIDTH 1020 0
DWIDTH 17 0
BBX 16 7 1 1
BITMAP
0008
0004
0002
FFFF
0002
0004
0008
ENDCHAR
STARTCHAR 2193
ENCODING 8595
SWIDTH 540 0
DWIDTH 9 0
BBX 7 16 1 -4
BITMAP
10
10
10
10
10
10
10
10
10
10
10
10
92
54
38
10
ENDCHAR
STARTCHAR 2194
ENCODING 8596
SWIDTH 1020 0
DWIDTH 17 0
BBX 16 7 1 1
BITMAP
1008
2004
4002
FFFF
4002
2004
1008
ENDCHAR
STARTCHAR 2195
ENCODING 8597
SWIDTH 540 0
DWIDTH 9 0
BBX 7 16 1 -4
BITMAP
10
38
54
92
10
10
10
10
10
10
10
10
92
54
38
10
ENDCHAR
STARTCHAR 21A8
ENCODING 8616
SWIDTH 540 0
DWIDTH 9 0
BBX 7 18 1 -6
BITMAP
10
38
54
92
10
10
10
10
10
10
10
10
92
54
38
10
00
FE
ENDCHAR
STARTCHAR 2202
ENCODING 8706
SWIDTH 480 0
DWIDTH 8 0
BBX 7 12 1 0
BITMAP
7C
42
02
02
1A
26
42
82
84
84
88
70
ENDCHAR
STARTCHAR 2206
ENCODING 8710
SWIDTH 600 0
DWIDTH 10 0
BBX 10 11 0 0
BITMAP
0800
0800
1400
1400
3200
2200
2100
4100
4080
4080
FFC0
ENDCHAR
STARTCHAR 220F
ENCODING 8719
SWIDTH 840 0
DWIDTH 14 0
BBX 14 16 0 -4
BITMAP
FFFC
2010
2010
2010
2010
2010
2010
2010
2010
2010
2010
2010
2010
2010
2010
F87C
ENDCHAR
STARTCHAR 2211
ENCODING 8721
SWIDTH 720 0
DWIDTH 12 0
BBX 12 16 0 -4
BITMAP
FFE0
4060
2020
2000
1000
0800
0400
0200
0400
0800
0800
1000
2000
2010
4030
FFF0
ENDCHAR
STARTCHAR 2212
ENCODING 8722
SWIDTH 600 0
DWIDTH 10 0
BBX 8 1 1 5
BITMAP
FF
ENDCHAR
STARTCHAR 2215
ENCODING 8725
SWIDTH 120 0
DWIDTH 2 0
BBX 8 12 -3 0
BITMAP
01
02
02
04
08
08
10
20
20
40
80
80
ENDCHAR
STARTCHAR 2219
ENCODING 8729
SWIDTH 300 0
DWIDTH 5 0
BBX 1 2 2 5
BITMAP
80
80
ENDCHAR
STARTCHAR 221A
ENCODING 8730
SWIDTH 540 0
DWIDTH 9 0
BBX 8 16 1 0
BITMAP
01
01
01
01
02
02
02
62
A2
12
12
14
0C
0C
04
04
ENDCHAR
STARTCHAR 221E
ENCODING 8734
SWIDTH 720 0
DWIDTH 12 0
BBX 11 7 0 1
BITMAP
7BC0
8E20
8420
8420
8420
8A20
79C0
ENDCHAR
STARTCHAR 221F
ENCODING 8735
SWIDTH 1020 0
DWIDTH 17 0
BBX 11 11 3 0
BITMAP
8000
8000
8000
8000
8000
8000
8000
8000
8000
8000
FFE0
ENDCHAR
STARTCHAR 2229
ENCODING 8745
SWIDTH 720 0
DWIDTH 12 0
BBX 10 12 1 0
BITMAP
1E00
6180
4080
8040
8040
8040
8040
8040
8040
8040
8040
8040
ENDCHAR
STARTCHAR 222B
ENCODING 8747
SWIDTH 300 0
DWIDTH 5 0
BBX 4 17 0 -1
BITMAP
30
50
40
40
40
40
40
40
40
40
40
40
40
40
40
40
80
ENDCHAR
STARTCHAR 2248
ENCODING 8776
SWIDTH 540 0
DWIDTH 9 0
BBX 7 5 1 3
BITMAP
72
9C
00
72
9C
ENDCHAR
STARTCHAR 2260
ENCODING 8800
SWIDTH 540 0
DWIDTH 9 0
BBX 8 10 0 1
BITMAP
02
02
04
FF
08
10
FF
20
40
40
ENDCHAR
STARTCHAR 2261
ENCODING 8801
SWIDTH 600 0
DWIDTH 10 0
BBX 8 5 1 3
BITMAP
FF
00
FF
00
FF
ENDCHAR
STARTCHAR 2264
ENCODING 8804
SWIDTH 540 0
DWIDTH 9 0
BBX 7 9 1 1
BITMAP
02
1C
60
80
60
1C
02
00
FE
ENDCHAR
STARTCHAR 2265
ENCODING 8805
SWIDTH 540 0
DWIDTH 9 0
BBX 7 9 1 1
BITMAP
80
70
0C
02
0C
70
80
00
FE
ENDCHAR
STARTCHAR 2302
ENCODING 8962
SWIDTH 600 0
DWIDTH 10 0
BBX 8 9 1 0
BITMAP
18
24
42
81
81
81
81
81
FF
ENDCHAR
STARTCHAR 2310
ENCODING 8976
SWIDTH 600 0
DWIDTH 10 0
BBX 8 6 1 0
BITMAP
FF
80
80
80
80
80
ENDCHAR
STARTCHAR 2320
ENCODING 8992
SWIDTH 600 0
DWIDTH 10 0
BBX 4 18 4 -4
BITMAP
70
40
40
C0
C0
C0
C0
C0
C0
C0
C0
C0
C0
C0
C0
C0
C0
C0
ENDCHAR
STARTCHAR 2321
ENCODING 8993
SWIDTH 600 0
DWIDTH 10 0
BBX 4 18 2 -4
BITMAP
30
30
30
30
30
30
30
30
30
30
30
30
30
30
30
30
20
E0
ENDCHAR
STARTCHAR 2500
ENCODING 9472
SWIDTH 720 0
DWIDTH 12 0
BBX 12 2 0 4
BITMAP
FFF0
FFF0
ENDCHAR
STARTCHAR 2502
ENCODING 9474
SWIDTH 660 0
DWIDTH 11 0
BBX 1 20 4 -5
BITMAP
80
80
80
80
80
80
80
80
80
80
80
80
80
80
80
80
80
80
80
80
ENDCHAR
STARTCHAR 250C
ENCODING 9484
SWIDTH 720 0
DWIDTH 12 0
BBX 7 11 5 -5
BITMAP
FE
FE
C0
C0
C0
C0
C0
C0
C0
C0
C0
ENDCHAR
STARTCHAR 2510
ENCODING 9488
SWIDTH 720 0
DWIDTH 12 0
BBX 7 11 0 -5
BITMAP
FE
FE
06
06
06
06
06
06
06
06
06
ENDCHAR
STARTCHAR 2514
ENCODING 9492
SWIDTH 720 0
DWIDTH 12 0
BBX 7 11 5 4
BITMAP
C0
C0
C0
C0
C0
C0
C0
C0
C0
FE
FE
ENDCHAR
STARTCHAR 2518
ENCODING 9496
SWIDTH 720 0
DWIDTH 12 0
BBX 7 11 0 4
BITMAP
06
06
06
06
06
06
06
06
06
FE
FE
ENDCHAR
STARTCHAR 251C
ENCODING 9500
SWIDTH 720 0
DWIDTH 12 0
BBX 7 20 5 -5
BITMAP
C0
C0
C0
C0
C0
C0
C0
C0
C0
FE
FE
C0
C0
C0
C0
C0
C0
C0
C0
C0
ENDCHAR
STARTCHAR 2524
ENCODING 9508
SWIDTH 720 0
DWIDTH 12 0
BBX 7 20 0 -5
BITMAP
06
06
06
06
06
06
06
06
06
FE
FE
06
06
06
06
06
06
06
06
06
ENDCHAR
STARTCHAR 252C
ENCODING 9516
SWIDTH 720 0
DWIDTH 12 0
BBX 12 11 0 -5
BITMAP
FFF0
FFF0
0600
0600
0600
0600
0600
0600
0600
0600
0600
ENDCHAR
STARTCHAR 2534
ENCODING 9524
SWIDTH 720 0
DWIDTH 12 0
BBX 12 11 0 4
BITMAP
0600
0600
0600
0600
0600
0600
0600
0600
0600
FFF0
FFF0
ENDCHAR
STARTCHAR 253C
ENCODING 9532
SWIDTH 720 0
DWIDTH 12 0
BBX 12 20 0 -5
BITMAP
0600
0600
0600
0600
0600
0600
0600
0600
0600
FFF0
FFF0
0600
0600
0600
0600
0600
0600
0600
0600
0600
ENDCHAR
STARTCHAR 2550
ENCODING 9552
SWIDTH 720 0
DWIDTH 12 0
BBX 12 4 0 3
BITMAP
FFF0
0000
0000
FFF0
ENDCHAR
STARTCHAR 2551
ENCODING 9553
SWIDTH 720 0
DWIDTH 12 0
BBX 4 20 4 -5
BITMAP
90
90
90
90
90
90
90
90
90
90
90
90
90
90
90
90
90
90
90
90
ENDCHAR
STARTCHAR 2552
ENCODING 9554
SWIDTH 720 0
DWIDTH 12 0
BBX 7 12 5 -5
BITMAP
FE
C0
C0
FE
C0
C0
C0
C0
C0
C0
C0
C0
ENDCHAR
STARTCHAR 2553
ENCODING 9555
SWIDTH 720 0
DWIDTH 12 0
BBX 8 11 4 -5
BITMAP
FF
FF
90
90
90
90
90
90
90
90
90
ENDCHAR
STARTCHAR 2554
ENCODING 9556
SWIDTH 720 0
DWIDTH 12 0
BBX 8 12 4 -5
BITMAP
FF
80
80
9F
90
90
90
90
90
90
90
90
ENDCHAR
STARTCHAR 2555
ENCODING 9557
SWIDTH 720 0
DWIDTH 12 0
BBX 7 12 0 -5
BITMAP
FE
06
06
FE
06
06
06
06
06
06
06
06
ENDCHAR
STARTCHAR 2556
ENCODING 9558
SWIDTH 720 0
DWIDTH 12 0
BBX 8 11 0 -5
BITMAP
FF
FF
09
09
09
09
09
09
09
09
09
ENDCHAR
STARTCHAR 2557
ENCODING 9559
SWIDTH 720 0
DWIDTH 12 0
BBX 8 12 0 -5
BITMAP
FF
01
01
F9
09
09
09
09
09
09
09
09
ENDCHAR
STARTCHAR 2558
ENCODING 9560
SWIDTH 720 0
DWIDTH 12 0
BBX 7 12 5 3
BITMAP
C0
C0
C0
C0
C0
C0
C0
C0
FE
C0
C0
FE
ENDCHAR
STARTCHAR 2559
ENCODING 9561
SWIDTH 720 0
DWIDTH 12 0
BBX 8 11 4 4
BITMAP
90
90
90
90
90
90
90
90
90
FF
FF
ENDCHAR
STARTCHAR 255A
ENCODING 9562
SWIDTH 720 0
DWIDTH 12 0
BBX 8 12 4 3
BITMAP
90
90
90
90
90
90
90
90
9F
80
80
FF
ENDCHAR
STARTCHAR 255B
ENCODING 9563
SWIDTH 720 0
DWIDTH 12 0
BBX 7 12 0 3
BITMAP
06
06
06
06
06
06
06
06
FE
06
06
FE
ENDCHAR
STARTCHAR 255C
ENCODING 9564
SWIDTH 720 0
DWIDTH 12 0
BBX 8 11 0 4
BITMAP
09
09
09
09
09
09
09
09
09
FF
FF
ENDCHAR
STARTCHAR 255D
ENCODING 9565
SWIDTH 720 0
DWIDTH 12 0
BBX 8 12 0 3
BITMAP
09
09
09
09
09
09
09
09
F9
01
01
FF
ENDCHAR
STARTCHAR 255E
ENCODING 9566
SWIDTH 720 0
DWIDTH 12 0
BBX 7 20 5 -5
BITMAP
C0
C0
C0
C0
C0
C0
C0
C0
FE
C0
C0
FE
C0
C0
C0
C0
C0
C0
C0
C0
ENDCHAR
STARTCHAR 255F
ENCODING 9567
SWIDTH 720 0
DWIDTH 12 0
BBX 8 20 4 -5
BITMAP
90
90
90
90
90
90
90
90
90
9F
9F
90
90
90
90
90
90
90
90
90
ENDCHAR
STARTCHAR 2560
ENCODING 9568
SWIDTH 720 0
DWIDTH 12 0
BBX 8 20 4 -5
BITMAP
90
90
90
90
90
90
90
90
9F
80
80
9F
90
90
90
90
90
90
90
90
ENDCHAR
STARTCHAR 2561
ENCODING 9569
SWIDTH 720 0
DWIDTH 12 0
BBX 7 20 0 -5
BITMAP
06
06
06
06
06
06
06
06
FE
06
06
FE
06
06
06
06
06
06
06
06
ENDCHAR
STARTCHAR 2562
ENCODING 9570
SWIDTH 720 0
DWIDTH 12 0
BBX 8 20 0 -5
BITMAP
09
09
09
09
09
09
09
09
09
F9
F9
09
09
09
09
09
09
09
09
09
ENDCHAR
STARTCHAR 2563
ENCODING 9571
SWIDTH 720 0
DWIDTH 12 0
BBX 8 20 0 -5
BITMAP
09
09
09
09
09
09
09
09
F9
01
01
F9
09
09
09
09
09
09
09
09
ENDCHAR
STARTCHAR 2564
ENCODING 9572
SWIDTH 720 0
DWIDTH 12 0
BBX 12 12 0 -5
BITMAP
FFF0
0000
0000
FFF0
0600
0600
0600
0600
0600
0600
0600
0600
ENDCHAR
STARTCHAR 2565
ENCODING 9573
SWIDTH 720 0
DWIDTH 12 0
BBX 12 11 0 -5
BITMAP
FFF0
FFF0
0900
0900
0900
0900
0900
0900
0900
0900
0900
ENDCHAR
STARTCHAR 2566
ENCODING 9574
SWIDTH 720 0
DWIDTH 12 0
BBX 12 12 0 -5
BITMAP
FFF0
0000
0000
F9F0
0900
0900
0900
0900
0900
0900
0900
0900
ENDCHAR
STARTCHAR 2567
ENCODING 9575
SWIDTH 720 0
DWIDTH 12 0
BBX 12 12 0 3
BITMAP
0600
0600
0600
0600
0600
0600
0600
0600
FFF0
0000
0000
FFF0
ENDCHAR
STARTCHAR 2568
ENCODING 9576
SWIDTH 720 0
DWIDTH 12 0
BBX 12 11 0 4
BITMAP
0900
0900
0900
0900
0900
0900
0900
0900
0900
FFF0
FFF0
ENDCHAR
STARTCHAR 2569
ENCODING 9577
SWIDTH 720 0
DWIDTH 12 0
BBX 12 12 0 3
BITMAP
0900
0900
0900
0900
0900
0900
0900
0900
F9F0
0000
0000
FFF0
ENDCHAR
STARTCHAR 256A
ENCODING 9578
SWIDTH 720 0
DWIDTH 12 0
BBX 12 20 0 -5
BITMAP
0600
0600
0600
0600
0600
0600
0600
0600
FFF0
0600
0600
FFF0
0600
0600
0600
0600
0600
0600
0600
0600
ENDCHAR
STARTCHAR 256B
ENCODING 9579
SWIDTH 720 0
DWIDTH 12 0
BBX 12 20 0 -5
BITMAP
0900
0900
0900
0900
0900
0900
0900
0900
0900
FFF0
FFF0
0900
0900
0900
0900
0900
0900
0900
0900
0900
ENDCHAR
STARTCHAR 256C
ENCODING 9580
SWIDTH 720 0
DWIDTH 12 0
BBX 12 20 0 -5
BITMAP
0900
0900
0900
0900
0900
0900
0900
0900
F9F0
0000
0000
F9F0
0900
0900
0900
0900
0900
0900
0900
0900
ENDCHAR
STARTCHAR 2580
ENCODING 9600
SWIDTH 720 0
DWIDTH 12 0
BBX 12 10 0 5
BITMAP
FFF0
FFF0
FFF0
FFF0
FFF0
FFF0
FFF0
FFF0
FFF0
FFF0
ENDCHAR
STARTCHAR 2584
ENCODING 9604
SWIDTH 720 0
DWIDTH 12 0
BBX 12 10 0 -5
BITMAP
FFF0
FFF0
FFF0
FFF0
FFF0
FFF0
FFF0
FFF0
FFF0
FFF0
ENDCHAR
STARTCHAR 2588
ENCODING 9608
SWIDTH 720 0
DWIDTH 12 0
BBX 12 20 0 -5
BITMAP
FFF0
FFF0
FFF0
FFF0
FFF0
FFF0
FFF0
FFF0
FFF0
FFF0
FFF0
FFF0
FFF0
FFF0
FFF0
FFF0
FFF0
FFF0
FFF0
FFF0
ENDCHAR
STARTCHAR 258C
ENCODING 9612
SWIDTH 720 0
DWIDTH 12 0
BBX 6 20 0 -5
BITMAP
FC
FC
FC
FC
FC
FC
FC
FC
FC
FC
FC
FC
FC
FC
FC
FC
FC
FC
FC
FC
ENDCHAR
STARTCHAR 2590
ENCODING 9616
SWIDTH 720 0
DWIDTH 12 0
BBX 6 20 6 -5
BITMAP
FC
FC
FC
FC
FC
FC
FC
FC
FC
FC
FC
FC
FC
FC
FC
FC
FC
FC
FC
FC
ENDCHAR
STARTCHAR 2591
ENCODING 9617
SWIDTH 720 0
DWIDTH 12 0
BBX 11 19 1 -4
BITMAP
8880
0000
2220
0000
8880
0000
2220
0000
8880
0000
2220
0000
8880
0000
2220
0000
8880
0000
2220
ENDCHAR
STARTCHAR 2592
ENCODING 9618
SWIDTH 720 0
DWIDTH 12 0
BBX 12 19 0 -4
BITMAP
5550
0000
AAA0
0000
5550
0000
AAA0
0000
5550
0000
AAA0
0000
5550
0000
AAA0
0000
5550
0000
AAA0
ENDCHAR
STARTCHAR 2593
ENCODING 9619
SWIDTH 720 0
DWIDTH 12 0
BBX 12 20 0 -5
BITMAP
5550
FFF0
AAA0
FFF0
5550
FFF0
AAA0
FFF0
5550
FFF0
AAA0
FFF0
5550
FFF0
AAA0
FFF0
5550
FFF0
AAA0
FFF0
ENDCHAR
STARTCHAR 25A0
ENCODING 9632
SWIDTH 600 0
DWIDTH 10 0
BBX 8 8 1 0
BITMAP
FF
FF
FF
FF
FF
FF
FF
FF
ENDCHAR
STARTCHAR 25A1
ENCODING 9633
SWIDTH 600 0
DWIDTH 10 0
BBX 8 8 1 0
BITMAP
FF
81
81
81
81
81
81
FF
ENDCHAR
STARTCHAR 25AA
ENCODING 9642
SWIDTH 360 0
DWIDTH 6 0
BBX 4 4 1 4
BITMAP
F0
F0
F0
F0
ENDCHAR
STARTCHAR 25AB
ENCODING 9643
SWIDTH 360 0
DWIDTH 6 0
BBX 4 4 1 4
BITMAP
F0
90
90
F0
ENDCHAR
STARTCHAR 25AC
ENCODING 9644
SWIDTH 1020 0
DWIDTH 17 0
BBX 17 3 0 3
BITMAP
FFFF80
FFFF80
FFFF80
ENDCHAR
STARTCHAR 25B2
ENCODING 9650
SWIDTH 1020 0
DWIDTH 17 0
BBX 11 12 3 0
BITMAP
0400
0400
0E00
0E00
1F00
1F00
3F80
3F80
7FC0
7FC0
FFE0
FFE0
ENDCHAR
STARTCHAR 25BA
ENCODING 9658
SWIDTH 1020 0
DWIDTH 17 0
BBX 12 12 2 0
BITMAP
8000
E000
F800
FE00
FF80
FFE0
FFF0
FFC0
FF00
FC00
F000
C000
ENDCHAR
STARTCHAR 25BC
ENCODING 9660
SWIDTH 1020 0
DWIDTH 17 0
BBX 11 12 3 0
BITMAP
FFE0
FFE0
7FC0
7FC0
3F80
3F80
1F00
1F00
0E00
0E00
0400
0400
ENDCHAR
STARTCHAR 25C4
ENCODING 9668
SWIDTH 1020 0
DWIDTH 17 0
BBX 11 11 3 0
BITMAP
0060
01E0
07E0
1FE0
7FE0
FFE0
3FE0
0FE0
03E0
00E0
0020
ENDCHAR
STARTCHAR 25CA
ENCODING 9674
SWIDTH 480 0
DWIDTH 8 0
BBX 7 12 0 0
BITMAP
10
28
28
44
44
82
82
44
44
28
28
10
ENDCHAR
STARTCHAR 25CB
ENCODING 9675
SWIDTH 600 0
DWIDTH 10 0
BBX 8 7 1 1
BITMAP
3E
42
81
81
81
42
3C
ENDCHAR
STARTCHAR 25CF
ENCODING 9679
SWIDTH 600 0
DWIDTH 10 0
BBX 7 7 1 1
BITMAP
38
7C
FE
FE
FE
7C
38
ENDCHAR
STARTCHAR 25D8
ENCODING 9688
SWIDTH 600 0
DWIDTH 10 0
BBX 8 8 1 0
BITMAP
FF
FF
E7
C3
E3
F7
FF
FF
ENDCHAR
STARTCHAR 25D9
ENCODING 9689
SWIDTH 600 0
DWIDTH 10 0
BBX 10 10 0 0
BITMAP
FFC0
FFC0
ECC0
DFC0
FF40
BF40
FF40
DEC0
F1C0
FFC0
ENDCHAR
STARTCHAR 25E6
ENCODING 9702
SWIDTH 360 0
DWIDTH 6 0
BBX 4 4 1 4
BITMAP
60
90
90
60
ENDCHAR
STARTCHAR 263A
ENCODING 9786
SWIDTH 1020 0
DWIDTH 17 0
BBX 11 11 3 -1
BITMAP
0600
3980
4040
4020
9120
8020
8020
5120
4E40
2080
1F00
ENDCHAR
STARTCHAR 263B
ENCODING 9787
SWIDTH 1080 0
DWIDTH 18 0
BBX 10 11 4 -1
BITMAP
0C00
3F00
7F80
FFC0
CCC0
FFC0
FFC0
FFC0
E380
7F80
1E00
ENDCHAR
STARTCHAR 263C
ENCODING 9788
SWIDTH 960 0
DWIDTH 16 0
BBX 13 13 1 -1
BITMAP
4208
2310
1CE0
1020
2020
2010
E018
2010
2020
1060
2F90
4208
0200
ENDCHAR
STARTCHAR 2640
ENCODING 9792
SWIDTH 540 0
DWIDTH 9 0
BBX 9 15 0 -3
BITMAP
1C00
6300
8100
8080
8080
8100
4100
3200
0C00
0800
0800
3E00
0800
0800
0800
ENDCHAR
STARTCHAR 2642
ENCODING 9794
SWIDTH 660 0
DWIDTH 11 0
BBX 11 14 0 -3
BITMAP
00C0
03C0
0140
0140
0220
0200
1C00
6200
4100
8080
8080
4180
2300
1E00
ENDCHAR
STARTCHAR 2660
ENCODING 9824
SWIDTH 540 0
DWIDTH 9 0
BBX 9 10 0 0
BITMAP
0800
0800
1C00
3E00
7F00
FF80
7F00
6B00
0800
1E00
ENDCHAR
STARTCHAR 2663
ENCODING 9827
SWIDTH 660 0
DWIDTH 11 0
BBX 11 10 0 0
BITMAP
0E00
1F00
1F00
7FC0
7FE0
FFE0
7FC0
3580
0600
1F00
ENDCHAR
STARTCHAR 2665
ENCODING 9829
SWIDTH 600 0
DWIDTH 10 0
BBX 8 9 1 1
BITMAP
E7
FF
FF
FF
7F
7E
3C
18
18
ENDCHAR
STARTCHAR 2666
ENCODING 9830
SWIDTH 540 0
DWIDTH 9 0
BBX 7 10 1 0
BITMAP
10
30
38
7C
FE
FE
7C
78
30
10
ENDCHAR
STARTCHAR 266A
ENCODING 9834
SWIDTH 780 0
DWIDTH 13 0
BBX 13 17 0 -4
BITMAP
0080
00C0
0160
0130
0118
0108
0100
0100
0100
0100
0100
3F00
7F00
FF00
FF00
7F00
3C00
ENDCHAR
STARTCHAR 266B
ENCODING 9835
SWIDTH 1020 0
DWIDTH 17 0
BBX 12 16 3 -4
BITMAP
0070
03F0
0FF0
0E10
0810
0810
0810
0810
0810
08F0
09F0
7BF0
F9E0
F9C0
F000
6000
ENDCHAR
STARTCHAR F000
ENCODING 61440
SWIDTH 780 0
DWIDTH 13 0
BBX 1 1 0 0
BITMAP
00
ENDCHAR
STARTCHAR F001
ENCODING 61441
SWIDTH 660 0
DWIDTH 11 0
BBX 8 13 1 0
BITMAP
3C
46
40
40
40
FE
42
42
42
42
42
42
E7
ENDCHAR
STARTCHAR F002
ENCODING 61442
SWIDTH 660 0
DWIDTH 11 0
BBX 8 13 1 0
BITMAP
3E
46
42
42
42
FE
42
42
42
42
42
42
E7
ENDCHAR
STARTCHAR F003
ENCODING 61443
SWIDTH 360 0
DWIDTH 6 0
BBX 5 7 0 5
BITMAP
30
30
50
90
F8
10
10
ENDCHAR
STARTCHAR F004
ENCODING 61444
SWIDTH 300 0
DWIDTH 5 0
BBX 2 4 2 -5
BITMAP
C0
40
40
80
ENDCHAR
STARTCHAR F005
ENCODING 61445
SWIDTH 360 0
DWIDTH 6 0
BBX 3 3 1 -4
BITMAP
E0
20
E0
ENDCHAR
STARTCHAR F006
ENCODING 61446
SWIDTH 540 0
DWIDTH 9 0
BBX 8 8 1 0
BITMAP
7F
A4
24
24
24
24
45
42
ENDCHAR
STARTCHAR F007
ENCODING 61447
SWIDTH 360 0
DWIDTH 6 0
BBX 4 6 1 6
BITMAP
F0
80
E0
10
90
60
ENDCHAR
STARTCHAR F008
ENCODING 61448
SWIDTH 360 0
DWIDTH 6 0
BBX 4 6 1 6
BITMAP
70
A0
20
40
40
40
ENDCHAR
STARTCHAR F009
ENCODING 61449
SWIDTH 360 0
DWIDTH 6 0
BBX 5 6 0 6
BITMAP
70
88
70
D8
88
70
ENDCHAR
STARTCHAR F100
ENCODING 61696
SWIDTH 660 0
DWIDTH 11 0
BBX 9 12 1 0
BITMAP
FF80
2080
2080
2000
2000
2000
2000
2000
2000
2000
2000
F800
ENDCHAR
STARTCHAR F101
ENCODING 61697
SWIDTH 780 0
DWIDTH 13 0
BBX 11 12 1 0
BITMAP
1F00
2080
4040
8020
9120
9F20
9F20
9120
8020
4040
2080
1F00
ENDCHAR
STARTCHAR F102
ENCODING 61698
SWIDTH 780 0
DWIDTH 13 0
BBX 11 12 1 0
BITMAP
0E00
0400
3F80
6440
8420
8420
8420
8420
44C0
3F80
0400
0E00
ENDCHAR
STARTCHAR F103
ENCODING 61699
SWIDTH 540 0
DWIDTH 9 0
BBX 8 8 1 0
BITMAP
72
4E
86
84
84
8C
CD
73
ENDCHAR
STARTCHAR F104
ENCODING 61700
SWIDTH 480 0
DWIDTH 8 0
BBX 6 12 1 0
BITMAP
78
4C
44
20
10
68
84
84
84
84
C8
70
ENDCHAR
STARTCHAR F105
ENCODING 61701
SWIDTH 480 0
DWIDTH 8 0
BBX 6 8 1 0
BITMAP
78
8C
80
78
80
84
8C
78
ENDCHAR
STARTCHAR F106
ENCODING 61702
SWIDTH 600 0
DWIDTH 10 0
BBX 9 8 1 0
BITMAP
3F80
4400
8200
8100
8100
4100
2200
1C00
ENDCHAR
STARTCHAR F107
ENCODING 61703
SWIDTH 420 0
DWIDTH 7 0
BBX 7 8 0 0
BITMAP
7E
90
10
10
10
10
12
0C
ENDCHAR
STARTCHAR F108
ENCODING 61704
SWIDTH 600 0
DWIDTH 10 0
BBX 8 11 1 -3
BITMAP
6E
49
89
89
89
89
4A
3C
08
08
08
ENDCHAR
STARTCHAR FB01
ENCODING 64257
SWIDTH 660 0
DWIDTH 11 0
BBX 8 13 1 0
BITMAP
3C
46
40
40
40
FE
42
42
42
42
42
42
E7
ENDCHAR
STARTCHAR FB02
ENCODING 64258
SWIDTH 660 0
DWIDTH 11 0
BBX 8 13 1 0
BITMAP
3E
46
42
42
42
FE
42
42
42
42
42
42
E7
ENDCHAR
ENDFONT
